<svg width="1920" height="1001" viewBox="0 0 1920 1001" fill="none" xmlns="http://www.w3.org/2000/svg">
<path d="M128.437 6.42272C46.3682 22.5251 22.148 6.42272 -13 6.42272L-10.9722 540.932L-13 1001H1922V535.565V1.50252C1895.13 -3.41765 1836.83 31.4708 1750.15 14.4739C1663.46 -2.52305 1664.98 14.4739 1594.52 20.7359C1524.05 26.998 1526.08 10.4483 1446.99 10.4483C1367.91 10.4483 1359.37 24.4173 1272.47 10.4483C1207.66 0.0289395 1183.44 5.32085 1139.65 10.4483C1105.27 14.4739 1084.95 20.6577 1033.49 10.4483C998.186 3.44461 961.216 20.7359 937.897 20.7359C914.578 20.7359 865.309 6.42272 824.976 6.42272C784.644 6.42272 735.301 22.5251 696.72 22.5251C652.66 22.5251 624.945 6.42272 593.303 6.42272C575.053 6.42272 533.098 17.8853 501.547 22.5251C469.995 27.1648 407.407 6.42271 367.359 14.4739C327.31 22.5251 291.672 14.4739 252.638 6.42272C213.603 -1.62847 174.619 -2.63846 128.437 6.42272Z" fill="#F5F7FE"/>
</svg>
