<svg width="1920" height="776" viewBox="0 0 1920 776" fill="none" xmlns="http://www.w3.org/2000/svg">
<path d="M135.364 9.55651H-6L-3.97328 776C5.31587 775.786 28.7583 773.563 48.2148 766.379C72.5355 757.4 117.63 747.138 145.498 747.138C173.365 747.138 229.607 774.717 272.674 759.966C315.742 745.214 374.517 739.442 436.839 752.911C499.161 766.379 520.441 758.042 576.683 747.138C632.924 736.235 661.805 752.911 687.646 766.379C713.487 779.848 741.861 777.924 780.368 766.379C818.876 754.835 833.063 747.138 847.757 747.138C862.451 747.138 894.372 758.042 908.052 758.042C921.732 758.041 942.506 749.704 968.347 747.138C994.188 744.573 1034.22 753.552 1059.04 761.89C1078.9 768.56 1099.41 764.669 1107.18 761.89C1139.94 750.559 1215 731.745 1253.1 747.138C1300.73 766.379 1338.22 761.89 1356.46 755.476C1374.7 749.062 1422.33 740.724 1440.57 747.138C1458.81 753.552 1489.72 761.89 1523.67 755.476C1557.62 749.062 1598.15 754.193 1638.69 768.304C1679.22 782.414 1737.99 768.303 1778.02 761.89C1810.04 756.759 1891.35 764.028 1928 768.304V2.50137C1901.15 -4.55376 1842.88 45.4735 1756.24 21.1013C1669.59 -3.27099 1671.11 21.1013 1600.68 30.0805C1530.26 39.0598 1532.28 15.3289 1453.24 15.3289C1374.2 15.3289 1368.12 50.6045 1279.96 21.1013C1191.79 -8.402 1180.59 -1.67267 1150.25 9.55651C1129.45 17.252 1082.38 32.646 1041.82 21.1013C1006.53 11.0585 967.84 32.646 944.533 32.646C921.226 32.646 871.855 9.55651 831.543 9.55651C791.232 9.55651 741.914 32.646 703.353 32.646C659.316 32.646 631.616 9.55651 599.99 9.55651C581.75 9.55651 523.481 29.4391 508.281 32.646C493.08 35.8529 443.426 9.5565 403.398 21.1013C363.37 32.646 298.515 21.1013 259.501 9.55651C220.486 -1.98825 171.338 9.55651 135.364 9.55651Z" fill="#F68C1F"/>
</svg>
