<svg width="22" height="50" viewBox="0 0 22 50" fill="none" xmlns="http://www.w3.org/2000/svg">
    <path d="M21.8566 33.1703C21.8566 32.0579 21.3365 31.0668 20.5206 30.4306C21.3364 29.7944 21.8657 28.8033 21.8657 27.6909C21.8657 26.5197 21.2596 25.4828 20.3689 24.8532C21.2656 24.1448 21.8198 23.0489 21.8198 21.82V14.5256L14.7975 5.38186H16.3405V0.000244141H5.47937V5.38186H7.12009L0 14.5256V21.8202C0 23.0491 0.601659 24.1449 1.49843 24.8534C0.607713 25.483 0.0367193 26.5198 0.0367193 27.6911C0.0367193 28.8034 0.569041 29.7946 1.38486 30.4308C0.569041 31.067 0.0458984 32.0581 0.0458984 33.1705C0.0458984 34.3417 0.60615 35.3786 1.49687 36.0082C0.600096 36.7166 0 37.8125 0 39.0414V45.3036C0 47.4347 1.78281 49.2174 3.91385 49.2174H7.8277V49.1531C8.47917 49.6531 9.29323 50.0002 10.176 50.0002H11.7416C12.6244 50.0002 13.4384 49.6532 14.0899 49.1531V49.2174H18.0037C20.1349 49.2174 21.8197 47.4346 21.8197 45.3036V39.0414C21.8197 37.8125 21.267 36.7167 20.3702 36.0082C21.2611 35.3785 21.8566 34.3416 21.8566 33.1703ZM6.94714 3.9141V1.46791H14.8728V3.9141H6.94714ZM8.97184 5.38186H12.9457L19.6445 14.0902H2.27304L8.97184 5.38186ZM18.3952 31.2134C19.5013 31.2134 20.4011 32.1132 20.4011 33.2193C20.4011 34.3253 19.5013 35.2251 18.3952 35.2251H16.4383V36.6928H18.0038C19.3257 36.6928 20.3522 37.7192 20.3522 39.0411V45.3033C20.3522 46.6252 19.3258 47.7495 18.0038 47.7495H15.2519C15.4789 47.1624 15.6066 46.6622 15.6066 46.0861H14.1389C14.1389 47.408 13.0635 48.5323 11.7417 48.5323H10.176C8.85426 48.5323 7.77878 47.4081 7.77878 46.0861H6.31111C6.31111 46.6623 6.43874 47.1625 6.66579 47.7495H3.91385C2.59208 47.7495 1.46767 46.6253 1.46767 45.3033V39.0411C1.46767 37.7192 2.59198 36.6928 3.91385 36.6928H11.7417V35.2251H3.52254C2.41649 35.2251 1.51669 34.3253 1.51669 33.2193C1.51669 32.1132 2.41649 31.2134 3.52254 31.2134H11.7417V29.7457H3.52254C2.41649 29.7457 1.51669 28.8459 1.51669 27.7399C1.51669 26.6338 2.41649 25.734 3.52254 25.734H11.7417V24.2664H3.91385C2.59208 24.2664 1.46767 23.1421 1.46767 21.8202V15.558H20.3522V21.8202C20.3522 23.142 19.3258 24.2664 18.0038 24.2664H16.4383V25.734H18.3952C19.5013 25.734 20.4011 26.6338 20.4011 27.7399C20.4011 28.8459 19.5013 29.7457 18.3952 29.7457H16.4383V31.2134H18.3952Z"/>
    <path d="M7.04501 10.959H5.47949V12.4267H7.04501V10.959Z"/>
    <path d="M8.61044 9.39355H7.04492V10.8612H8.61044V9.39355Z"/>
    <path d="M14.8731 29.7458H13.3076V31.2135H14.8731V29.7458Z"/>
    <path d="M14.8731 24.2664H13.3076V25.734H14.8731V24.2664Z"/>
    <path d="M14.8731 35.2251H13.3076V36.6928H14.8731V35.2251Z"/>
</svg>
