<svg width="53" height="56" viewBox="0 0 53 56" fill="none" xmlns="http://www.w3.org/2000/svg">
<path d="M49.8548 29.8438C49.8548 44.0576 39.3562 55.5 26.5 55.5C13.6438 55.5 3.14514 44.0576 3.14514 29.8438C3.14514 15.6299 13.6438 4.1875 26.5 4.1875C39.3562 4.1875 49.8548 15.6299 49.8548 29.8438Z" fill="white" stroke="black"/>
<path d="M49.8548 31.5312C49.8548 32.3507 49.3326 33.2197 48.1795 34.0876C47.0349 34.949 45.3469 35.7461 43.2162 36.4244C38.9606 37.7791 33.0504 38.625 26.5 38.625C19.9496 38.625 14.0394 37.7791 9.78373 36.4244C7.65302 35.7461 5.96505 34.949 4.82044 34.0876C3.66735 33.2197 3.14514 32.3507 3.14514 31.5312C3.14514 30.7118 3.66735 29.8428 4.82044 28.9749C5.96505 28.1135 7.65302 27.3164 9.78373 26.6381C14.0394 25.2834 19.9496 24.4375 26.5 24.4375C33.0504 24.4375 38.9606 25.2834 43.2162 26.6381C45.3469 27.3164 47.0349 28.1135 48.1795 28.9749C49.3326 29.8428 49.8548 30.7118 49.8548 31.5312Z" fill="white" stroke="black"/>
<path d="M19.0968 47.5625C26.7429 49.9159 30.6503 49.7067 37.1936 47.5625" stroke="black"/>
<path d="M3.10119 29C3.10119 28.55 3.10119 27.2001 3.10119 27.6501C3.10119 28.0095 3.08212 28.3761 3.10119 28.7349C3.11469 28.989 3.52377 29.148 3.52377 28.7791C3.52377 28.4274 3.6928 28.2532 3.6928 27.9397C3.6928 27.4861 3.86364 27.0418 3.94635 26.6094C4.16067 25.4892 4.73741 24.2723 5.2141 23.2568C5.57015 22.4982 5.87217 21.7226 6.30812 21.0085C6.88987 20.0557 7.24434 18.8672 7.95149 18.0142C9.10235 16.6259 5.87669 20.9884 4.99811 22.5793C4.62295 23.2587 3.98764 24.0472 3.73506 24.7785C3.50472 25.4453 3.43925 26.0134 3.43925 26.7027C3.43925 27.0359 3.08571 27.4808 2.8899 27.7286C2.84784 27.7819 2.70375 28.1092 2.64574 28.1213C2.63438 28.1237 2.78845 27.0255 2.80069 26.9678C3.10707 25.5218 3.58691 24.1272 3.94635 22.6972C4.14579 21.9037 4.30441 21.1277 4.53797 20.341C4.88601 19.1685 5.45176 18.211 6.07335 17.1797C7.8185 14.2844 9.76187 11.6798 12.1726 9.36497C13.0812 8.49257 13.8833 7.48455 14.9476 6.8026C15.5433 6.42088 14.5309 7.66069 14.4499 7.76963C13.8523 8.57283 13.1666 9.2965 12.5482 10.0817C11.6619 11.2072 10.9404 12.4305 10.163 13.6356C9.66465 14.4081 9.07736 15.1113 8.52902 15.8445C8.2964 16.1556 7.9931 16.4154 7.80124 16.7576C7.09253 18.0215 6.24107 19.1784 5.55216 20.4588C5.34913 20.8361 4.96435 21.1529 4.79621 21.5338C4.75989 21.6161 4.60689 22.0997 4.63187 21.9952C4.71314 21.6554 4.94469 21.332 5.12489 21.0478C5.78837 20.0015 6.5831 19.074 7.38335 18.1418C9.01917 16.2364 10.5677 14.2254 12.2947 12.4084C13.2267 11.4278 14.2238 10.5708 15.2715 9.73313C16.3613 8.86194 17.2949 7.8042 18.3987 6.95477C19.2485 6.30074 20.0392 5.57604 20.8684 4.89801C21.9024 4.05248 23.3538 3.5199 24.5871 3.11122C26.3724 2.51964 28.2563 2.25904 30.123 2.1491C31.1719 2.08732 34.3149 1.91067 33.2735 2.05584C32.1934 2.2064 31.0964 2.57893 30.0431 2.86578C28.0713 3.40279 26.1135 3.98575 24.1364 4.50531C22.457 4.94662 20.6668 5.50863 19.1405 6.38045C18.379 6.81544 17.6773 7.34138 17.0511 7.97089C16.7713 8.25213 16.4993 8.61583 16.1543 8.81519C16.0871 8.85398 15.9964 8.83491 15.9477 8.89864C15.8792 8.98812 15.9985 7.61699 16.0322 7.46038C16.1705 6.81801 16.5069 6.54698 16.9994 6.20373C17.4764 5.8713 17.9719 5.52197 18.4785 5.24162C18.6717 5.1347 19.3138 5.05828 18.8776 5.36925C18.1332 5.89983 17.2287 6.12163 16.5111 6.71425C16.1151 7.04133 15.8805 7.39033 15.5908 7.79417C15.1062 8.46972 15.0047 8.95172 14.2198 9.34043C13.8071 9.54479 13.6694 9.82854 13.4779 10.2289C13.3215 10.556 13.5201 10.2287 13.6423 10.0817C14.5296 9.01341 15.7476 8.37979 16.9854 7.87762C18.7502 7.16165 20.5582 6.53726 22.3521 5.9043C23.24 5.59102 24.1811 5.14699 25.1036 4.97164C25.5432 4.88807 25.9322 4.65129 26.362 4.52494C26.9476 4.35275 27.5154 4.34823 28.118 4.34823C29.5157 4.34823 30.9133 4.34823 32.311 4.34823C33.1519 4.34823 34.2615 4.68819 34.9826 5.12381C35.1817 5.24403 35.428 5.333 35.6447 5.40852C35.9569 5.51733 35.0623 5.43792 34.9498 5.3987C33.6728 4.95368 32.267 4.87837 30.9259 4.87837C30.4057 4.87837 29.9613 4.75965 29.4562 4.66239C28.9246 4.56 28.3566 4.6133 27.8175 4.6133C27.3927 4.6133 26.147 4.82328 26.5686 4.87837C26.9346 4.92621 27.3369 4.94757 27.7048 4.96182C28.5395 4.99414 29.2534 5.1462 30.0619 5.31525C31.4949 5.61488 32.9196 5.89358 34.33 6.29209C35.1018 6.51016 35.7834 6.95186 36.5697 7.10695C37.2285 7.23691 37.9023 7.66575 38.4713 8.01016C38.8514 8.2402 39.2015 8.44302 39.5277 8.76611C39.6752 8.91214 39.9135 9.06881 39.6827 8.72193C39.3876 8.27848 38.8398 7.84626 38.429 7.52419C37.868 7.08427 37.4674 6.60283 36.8232 6.27246C36.4148 6.06298 36.1076 6.02702 35.6588 6.02702C35.2432 6.02702 35.2031 5.9356 35.5743 6.15465C36.2545 6.55613 36.9644 7.007 37.49 7.61746C37.9249 8.12274 38.1155 8.79514 38.5605 9.29134C39.0647 9.85358 41.0347 10.9144 40.3353 10.6707C39.5304 10.3902 38.7854 9.80505 38.044 9.38952C37.2741 8.95801 36.4534 8.61955 35.7151 8.12797C35.1146 7.72815 34.5741 7.26614 33.945 6.9106C32.7851 6.25512 31.7123 5.65544 30.4281 5.30052C29.107 4.93538 27.8654 4.79001 26.5028 4.79001C25.7094 4.79001 24.9387 4.84357 24.1599 5.01582C23.9244 5.06788 22.8877 5.28682 22.817 5.61959C22.7997 5.70104 25.4351 5.59562 25.4417 5.59505C27.3943 5.42669 29.297 5.32016 31.2545 5.32016C31.951 5.32016 32.6475 5.32016 33.344 5.32016C33.4251 5.32016 33.7085 5.3231 33.4707 5.2318C33.015 5.05677 32.4998 5.00533 32.0246 4.91764C30.2271 4.58602 28.4068 4.50005 26.5827 4.52985C24.5166 4.5636 22.4722 4.87837 20.4036 4.87837C17.9125 4.87837 15.444 4.52703 13.0272 5.33979C12.4342 5.5392 11.4159 6.03009 12.5435 6.34118C14.8767 6.98487 17.3708 7.17756 19.7603 7.48983C21.4196 7.70667 23.0512 8.1203 24.6998 8.41268C25.2602 8.51206 25.7971 8.82634 26.362 8.85446C27.6203 8.91711 28.8622 9.03118 30.1323 9.03118C30.7103 9.03118 31.2808 9.20789 31.8743 9.20789C32.4957 9.20789 33.117 9.20789 33.7384 9.20789C34.9639 9.20789 36.1893 9.20789 37.4148 9.20789" stroke="white" stroke-linecap="round"/>
<path d="M40.4839 8.75C40.9487 9.55353 41.6298 10.1545 42.0811 10.9447C42.4236 11.5446 42.9023 11.9392 43.347 12.4402C43.9042 13.0679 44.3979 13.8115 44.8943 14.499C45.3266 15.0976 45.689 15.7304 46.0378 16.3927C46.3776 17.038 46.6721 17.7115 46.9816 18.3738C47.1402 18.7133 47.5341 19.3512 47.1994 18.5631C46.566 17.0719 45.4883 15.8222 44.5858 14.5184C44.1212 13.8473 43.7594 13.0469 43.1837 12.4694C42.6426 11.9265 42.2046 11.3023 41.6455 10.8476C41.3264 10.5881 41.3006 10.6104 41.3006 11.0613C41.3006 11.7611 42.1644 12.3934 42.5893 12.8384C42.9611 13.2278 43.2255 13.6836 43.5875 14.0814C44.193 14.7469 44.8064 15.5048 45.2165 16.3247C45.943 17.7773 46.5927 19.1878 47.6168 20.4228C48.1621 21.0805 48.7461 21.7216 49.1732 22.4767C49.5355 23.1173 49.8541 23.8365 50.1578 24.5161C50.3393 24.9221 50.1289 24.4596 50.0761 24.317C49.8087 23.5948 49.6844 22.8225 49.4318 22.0931C49.1439 21.2618 48.6635 20.4084 48.6514 19.5002C48.6468 19.1611 48.6809 18.719 48.5243 18.4077C48.2113 17.7857 48.243 18.7982 48.243 19.0147C48.243 19.2133 48.2191 19.4338 48.2475 19.6313C48.2527 19.6675 48.3893 20.0404 48.2884 20.0344C47.7601 20.003 47.7165 18.5314 47.6667 18.1941C47.6332 17.9666 47.5373 17.4508 47.3627 17.6843C47.2117 17.8863 47.4206 18.4528 47.4262 18.6748C47.4389 19.1766 47.5251 19.7511 47.635 20.2383C47.756 20.7751 47.9147 21.3182 48.125 21.8212C48.3083 22.2596 48.3276 22.7403 48.5288 23.1711C49.2533 24.7215 50.1482 25.9946 50.793 27.5605C50.9513 27.9448 51.1762 28.2904 51.3285 28.6773C51.5191 29.1618 51.0315 28.0344 50.9745 27.9295C50.457 26.977 49.8404 26.0874 49.3229 25.1813C49.2526 25.0581 48.3735 24.3223 48.3292 24.5355C48.1975 25.1696 48.8757 25.737 49.0597 26.2786C49.12 26.4561 49.2569 26.6273 49.3456 26.7982C49.4414 26.9827 49.5924 27.388 49.7313 27.5217C50.025 27.8046 50.2353 28.2961 50.5299 28.6287C50.8396 28.9785 50.9406 29.4815 51.2241 29.8523C51.3725 30.0464 51.6733 30.2616 51.6733 30.5418C51.6733 30.826 51.3548 30.0869 51.1923 29.8621C51.0738 29.698 50.9362 29.5245 50.8566 29.3328C50.5851 28.6791 49.7602 28.4015 49.3501 27.8373C49.256 27.7078 48.733 26.8858 48.733 27.3663C48.733 27.4561 48.6851 27.8573 48.7784 27.8858C48.9632 27.9423 48.9441 28.2171 49.0597 28.2403C49.2823 28.285 49.5282 28.7319 49.6768 28.8909C49.8743 29.1023 50.1722 29.3678 50.4074 29.5076C50.5441 29.5889 50.6679 29.5997 50.8112 29.6436C50.9342 29.6812 51.063 29.9012 51.1833 29.9689C51.4907 30.142 51.7549 30.5563 52 30.6875" stroke="white" stroke-linecap="round"/>
<path d="M4.29032 27.3125C3.77521 27.6534 3.55811 28.0644 3.25738 28.5329C3.15394 28.6941 2.94067 28.8196 2.83956 28.9849C2.76188 29.1119 2.7143 29.1787 2.59584 29.2813C2.52454 29.3429 2.41014 29.4628 2.41014 29.5499C2.41014 29.6747 2.00707 29.9473 1.91398 30.0924C1.80344 30.2646 1.71617 30.4547 1.60061 30.6348C1.54313 30.7243 1.58619 30.833 1.53388 30.9286C1.43356 31.1119 1.31882 31.3035 1.23792 31.4936C1.14062 31.7222 1.27741 32.255 1 32.375" stroke="white" stroke-linecap="round"/>
<path d="M49.2026 27.3125C49.151 27.3204 48.7292 27.3555 48.7114 27.4236C48.6964 27.481 48.7866 27.5236 48.8141 27.5678C48.8555 27.6344 48.9686 27.8354 49.0305 27.8655C49.1714 27.9341 49.1272 28.1297 49.2526 28.1964C49.354 28.2504 49.5764 28.3522 49.605 28.4375C49.6263 28.5008 49.7871 28.5899 49.8409 28.6408C49.9446 28.7389 49.9896 28.8394 50.1268 28.8913C50.1815 28.912 50.3054 29.128 50.3404 29.1843C50.3901 29.2642 50.3997 29.3908 50.4792 29.4585C50.7034 29.6494 50.7002 29.8512 50.8122 30.0777C50.9194 30.2945 51.071 30.4901 51.1897 30.6922C51.352 30.9687 51.5564 31.2029 51.7114 31.4816C51.7997 31.6404 51.8138 31.8273 51.8752 31.9945C51.9154 32.1043 52 32.267 52 32.375" stroke="white" stroke-linecap="round"/>
<path d="M21.5645 5.375C21.5645 5.375 19.7137 11.2813 21.5645 11.2812C23.4153 11.2812 21.5645 17.1875 21.5645 17.1875" stroke="black"/>
<path d="M26.5 5.375C26.5 5.375 24.6492 11.2813 26.5 11.2812C28.3508 11.2812 26.5 17.1875 26.5 17.1875" stroke="black"/>
<path d="M31.4355 5.375C31.4355 5.375 29.5847 11.2813 31.4355 11.2812C33.2863 11.2812 31.4355 17.1875 31.4355 17.1875" stroke="black"/>
<path d="M30.1129 26.4688C30.1129 29.4666 27.7469 31.875 24.8549 31.875C21.9628 31.875 19.5968 29.4666 19.5968 26.4688C19.5968 23.4709 21.9628 21.0625 24.8549 21.0625C27.7469 21.0625 30.1129 23.4709 30.1129 26.4688Z" fill="white" stroke="black"/>
<path d="M33.4032 33.2188C33.4032 36.2166 31.0372 38.625 28.1451 38.625C25.2531 38.625 22.8871 36.2166 22.8871 33.2188C22.8871 30.2209 25.2531 27.8125 28.1451 27.8125C31.0372 27.8125 33.4032 30.2209 33.4032 33.2188Z" fill="white" stroke="black"/>
<path d="M41.629 31.5312C41.629 34.5291 39.263 36.9375 36.371 36.9375C33.4789 36.9375 31.1129 34.5291 31.1129 31.5312C31.1129 28.5334 33.4789 26.125 36.371 26.125C39.263 26.125 41.629 28.5334 41.629 31.5312Z" fill="white" stroke="black"/>
<path d="M36.6936 28.1562C36.6936 31.1541 34.3275 33.5625 31.4355 33.5625C28.5434 33.5625 26.1774 31.1541 26.1774 28.1562C26.1774 25.1584 28.5434 22.75 31.4355 22.75C34.3275 22.75 36.6936 25.1584 36.6936 28.1562Z" fill="white" stroke="black"/>
<path d="M23.5322 31.5312C23.5322 34.5291 21.1662 36.9375 18.2742 36.9375C15.3821 36.9375 13.0161 34.5291 13.0161 31.5312C13.0161 28.5334 15.3821 26.125 18.2742 26.125C21.1662 26.125 23.5322 28.5334 23.5322 31.5312Z" fill="white" stroke="black"/>
<path d="M47.7077 17.4078C46.3395 15.1487 44.9952 12.9026 43.4675 10.7637C43.2093 10.4022 42.8436 10.1691 42.5684 9.83277C42.2319 9.4214 41.8231 9.25723 41.4462 8.91459C41.1441 8.63996 40.4079 8.59194 40.0179 8.57027C39.6934 8.55224 39.3174 8.04246 39.036 7.88163C38.2319 7.42215 37.4859 6.83254 36.6895 6.36408C36.4803 6.24102 36.5692 5.98665 36.2878 5.92411C36.1366 5.89052 35.9959 5.66048 35.8287 5.58617C35.0019 5.21869 34.8522 4.25402 34.2219 3.74981C33.7668 3.38576 33.1229 2.28389 32.4174 2.25776C31.3239 2.21726 30.6008 2.40047 29.6374 2.80612C28.7901 3.16287 27.4619 3.17594 26.5257 3.17594C25.7053 3.17594 24.8849 3.17594 24.0645 3.17594C22.2424 3.17594 20.3712 2.62268 18.9507 4.04311C18.5691 4.42476 17.8942 4.70502 17.7265 5.24185C17.6381 5.52458 17.3736 5.41857 17.2929 5.70095C17.2389 5.88979 17.0504 6.20198 16.8912 6.32582C16.7012 6.47357 16.3962 6.52679 16.1707 6.68289C15.9879 6.80945 15.7631 6.94614 15.5713 7.05271C14.9033 7.42381 14.5081 8.11806 13.8943 8.57027C12.4819 9.61099 10.8232 10.7162 9.74339 12.1282C9.30023 12.7077 8.92061 13.3685 8.5064 13.971C8.31687 14.2466 8.08344 14.5479 7.85602 14.7935C7.62931 15.0384 7.64614 15.3214 7.42243 15.5714C7.04007 15.9988 6.98597 16.8475 6.67003 17.344C6.41531 17.7443 5.98177 18.0914 5.84111 18.5555C5.77645 18.7689 5.63171 18.9836 5.5223 19.1868C5.35022 19.5063 5.37369 19.8487 5.19074 20.1623C4.93571 20.5995 4.93784 21.1888 4.78265 21.6544" stroke="white" stroke-width="3" stroke-linecap="round"/>
</svg>
