<svg width="17" height="43" viewBox="0 0 17 43" fill="none" xmlns="http://www.w3.org/2000/svg">
<rect x="0.5" y="11.5" width="15" height="31" fill="white" stroke="black"/>
<path d="M11.5 11V1" stroke="black"/>
<line x1="11.4069" y1="0.709381" x2="16.4069" y2="7.70938" stroke="black"/>
<path d="M13.5 31.5C13.5 32.55 12.9337 33.5387 11.9426 34.282C10.9514 35.0254 9.55913 35.5 8 35.5C6.44087 35.5 5.04859 35.0254 4.05736 34.282C3.06629 33.5387 2.5 32.55 2.5 31.5C2.5 30.953 2.64473 30.848 2.70843 30.8137C2.84527 30.7401 3.12451 30.7171 3.67309 30.8109C3.97988 30.8633 4.30053 30.9368 4.66023 31.0192C4.93497 31.0822 5.2325 31.1504 5.56403 31.2184C6.29675 31.3688 7.12328 31.5 8 31.5C8.87672 31.5 9.70325 31.3688 10.436 31.2184C10.7675 31.1504 11.065 31.0822 11.3398 31.0192C11.6995 30.9368 12.0201 30.8633 12.3269 30.8109C12.8755 30.7171 13.1547 30.7401 13.2916 30.8137C13.3553 30.848 13.5 30.953 13.5 31.5Z" fill="white" stroke="black"/>
<path d="M2.80676 30.5744C4.05415 30.5744 3.39868 30.2926 4.07833 29.6809C4.40064 29.3908 5.03324 29.5043 5.35848 29.2513C5.57726 29.0811 5.52326 28.8017 5.74511 28.6843C5.94821 28.5767 6.32306 28.5037 6.48399 28.375C6.78872 28.1312 7.43611 28.2547 7.83288 28.2547C8.71518 28.2547 9.29806 29.0279 10.23 29.0279C11.1186 29.0279 11.7241 29.9558 12.5497 29.9558" stroke="black" stroke-linecap="round"/>
<path d="M5 21C7.79028 23.8 3.60479 23.8 5.93006 27" stroke="black"/>
<path d="M9 21C11.7903 23.8 7.60479 23.8 9.93006 27" stroke="black"/>
<path d="M7 21C9.79028 23.8 5.60479 23.8 7.93006 27" stroke="black"/>
<line x1="3" y1="39.5" x2="13" y2="39.5" stroke="black"/>
<line x1="3" y1="14.5" x2="13" y2="14.5" stroke="black"/>
<path d="M9.79398 13.7207C9.66294 14.0565 9.58315 14.3225 9.60282 14.6765C9.61241 14.8492 9.78516 15.0045 9.79398 15.1544C9.81249 15.4691 9.94339 15.2928 10.0595 15.1332C10.1631 14.9907 9.98108 14.6989 10.1285 14.5809C10.173 14.5453 10.5586 13.444 10.5586 14.0552C10.5586 14.4535 10.5586 14.8517 10.5586 15.25" stroke="white" stroke-linecap="round"/>
<path d="M5.1106 38.7625C5.11879 39.0985 5.1502 39.7691 5.44512 40.0051C5.55694 40.0945 5.50081 40.2967 5.63628 40.0529C5.74573 39.8559 5.86166 39.5599 5.87523 39.336C5.881 39.2409 5.94593 38.8834 5.99205 38.805C6.13598 38.5603 6.35313 38.842 6.35313 39.0015C6.35313 39.3679 6.35313 39.7343 6.35313 40.1007" stroke="white" stroke-linecap="round"/>
<path d="M14.9552 18.4041C15.0147 18.3914 16.4738 17.9914 16.4738 18.3138C16.4738 18.5658 15.5192 18.6111 15.2897 18.7386C15.1368 18.8236 14.8069 18.786 14.6897 18.9032C14.4806 19.1123 15.0542 19.1687 15.1464 19.1687C15.3796 19.1687 16.2856 19.2561 16.0809 19.2643C15.7088 19.2792 15.1633 19.4535 14.8171 19.3546C14.6496 19.3067 14.4773 18.4221 14.4773 18.2607C14.4773 18.0081 15.2266 18.1174 15.4331 18.1174C15.849 18.1174 15.8839 17.7215 16.2933 17.9262" stroke="white" stroke-linecap="round"/>
</svg>
