<svg width="35" height="57" viewBox="0 0 35 57" fill="none" xmlns="http://www.w3.org/2000/svg">
<path d="M6.36116 8.88693C6.3742 8.82977 6.3863 8.77691 6.39742 8.72845H29.9533C29.9616 8.77211 29.9707 8.81918 29.9803 8.86959C30.0483 9.2254 30.1469 9.74768 30.2689 10.4127C30.5131 11.7426 30.8513 13.6432 31.2271 15.924C31.9788 20.4867 32.8802 26.5665 33.4809 32.6432C34.0824 38.7275 34.3791 44.7786 33.9325 49.2961C33.7087 51.5606 33.302 53.3927 32.6835 54.6441C32.0695 55.8864 31.3041 56.4595 30.3656 56.4595H30.3092H30.2529H30.1969H30.1409H30.0851H30.0295H29.9739H29.9186H29.8633H29.8083H29.7533H29.6985H29.6438H29.5893H29.5349H29.4806H29.4265H29.3725H29.3187H29.265H29.2114H29.1579H29.1046H29.0514H28.9984H28.9454H28.8926H28.84H28.7874H28.735H28.6827H28.6306H28.5785H28.5266H28.4748H28.4232H28.3716H28.3202H28.2689H28.2177H28.1667H28.1157H28.0649H28.0142H27.9637H27.9132H27.8628H27.8126H27.7625H27.7125H27.6626H27.6128H27.5632H27.5136H27.4642H27.4149H27.3656H27.3165H27.2675H27.2186H27.1699H27.1212H27.0726H27.0241H26.9758H26.9275H26.8794H26.8313H26.7834H26.7355H26.6878H26.6401H26.5926H26.5451H26.4977H26.4505H26.4033H26.3563H26.3093H26.2624H26.2157H26.169H26.1224H26.0759H26.0295H25.9831H25.9369H25.8908H25.8447H25.7988H25.7529H25.7071H25.6614H25.6158H25.5703H25.5248H25.4795H25.4342H25.389H25.3439H25.2988H25.2539H25.209H25.1642H25.1195H25.0748H25.0303H24.9858H24.9414H24.897H24.8528H24.8086H24.7645H24.7204H24.6765H24.6326H24.5887H24.545H24.5013H24.4577H24.4141H24.3706H24.3272H24.2839H24.2406H24.1973H24.1542H24.1111H24.0681H24.0251H23.9822H23.9393H23.8965H23.8538H23.8111H23.7685H23.726H23.6835H23.641H23.5986H23.5563H23.514H23.4718H23.4296H23.3875H23.3454H23.3034H23.2614H23.2195H23.1776H23.1358H23.094H23.0523H23.0106H22.969H22.9274H22.8859H22.8444H22.8029H22.7615H22.7201H22.6788H22.6375H22.5962H22.555H22.5138H22.4727H22.4316H22.3905H22.3495H22.3085H22.2675H22.2266H22.1857H22.1448H22.104H22.0632H22.0224H21.9817H21.941H21.9003H21.8596H21.819H21.7784H21.7378H21.6973H21.6568H21.6163H21.5758H21.5353H21.4949H21.4545H21.4141H21.3737H21.3334H21.293H21.2527H21.2124H21.1721H21.1319H21.0916H21.0514H21.0112H20.971H20.9308H20.8906H20.8504H20.8102H20.7701H20.73H20.6898H20.6497H20.6096H20.5695H20.5294H20.4893H20.4492H20.4091H20.369H20.3289H20.2888H20.2488H20.2087H20.1686H20.1285H20.0885H20.0484H20.0083H19.9682H19.9281H19.888H19.8479H19.8078H19.7677H19.7276H19.6875H19.6473H19.6072H19.567H19.5269H19.4867H19.4465H19.4063H19.3661H19.3259H19.2857H19.2454H19.2051H19.1649H19.1246H19.0842H19.0439H19.0035H18.9632H18.9228H18.8824H18.8419H18.8015H18.761H18.7205H18.68H18.6394H18.5988H18.5582H18.5176H18.4769H18.4363H18.3955H18.3548H18.314H18.2732H18.2324H18.1915H18.1506H18.1097H18.0687H18.0277H17.9867H17.9456H17.9045H17.8634H17.8222H17.781H17.7397H17.6984H17.6571H17.6157H17.5743H17.5328H17.4913H17.4497H17.4081H17.3665H17.3248H17.2831H17.2413H17.1995H17.1576H17.1157H17.0737H17.0317H16.9896H16.9475H16.9053H16.8631H16.8208H16.7784H16.736H16.6936H16.6511H16.6085H16.5659H16.5232H16.4805H16.4377H16.3948H16.3519H16.3089H16.2659H16.2228H16.1796H16.1364H16.0931H16.0498H16.0063H15.9628H15.9193H15.8756H15.832H15.7882H15.7444H15.7004H15.6565H15.6124H15.5683H15.5241H15.4798H15.4355H15.3911H15.3466H15.302H15.2574H15.2126H15.1678H15.1229H15.078H15.0329H14.9878H14.9426H14.8973H14.852H14.8065H14.761H14.7153H14.6696H14.6238H14.578H14.532H14.4859H14.4398H14.3935H14.3472H14.3008H14.2543H14.2077H14.161H14.1142H14.0673H14.0203H13.9733H13.9261H13.8788H13.8315H13.784H13.7364H13.6888H13.641H13.5932H13.5452H13.4971H13.449H13.4007H13.3523H13.3039H13.2553H13.2066H13.1578H13.1089H13.0599H13.0108H12.9615H12.9122H12.8627H12.8132H12.7635H12.7137H12.6638H12.6138H12.5637H12.5134H12.4631H12.4126H12.362H12.3113H12.2605H12.2095H12.1585H12.1073H12.056H12.0045H11.953H11.9013H11.8495H11.7976H11.7456H11.6934H11.6411H11.5887H11.5361H11.4834H11.4306H11.3777H11.3246H11.2714H11.2181H11.1646H11.111H11.0573H11.0034H10.9494H10.8953H10.841H10.7866H10.732H10.6773H10.6225H10.5676H10.5125H10.4572H10.4018H10.3463H10.2906H10.2348H10.1789H10.1228H10.0665H10.0101H9.95358H9.89689H9.84006H9.78307H9.72594H9.66866H9.61122H9.55364H9.4959H9.43801H9.37997H9.32177H9.26342H9.20492H9.14626H9.08744H9.02846H8.96933H8.91004H8.85059H8.79098H8.73121H8.67128H8.61118H8.55093H8.49051H8.42993H8.36918H8.30827H8.24719H8.18595H8.12454H8.06296H8.00121H7.9393H7.87721H7.81496H7.75253H7.68993H7.62716H7.56422H7.5011H7.43781H7.37435H7.31071H7.24689H7.1829H7.11872H7.05437H6.98985H6.92514H6.86025H6.79518H6.72993H6.6645H6.59889H6.53309H6.46711H6.40094H6.33459H6.26805H6.20133H6.13442H6.06732H6.00003C4.78229 56.4595 3.84925 55.8325 3.12891 54.6116C2.39504 53.3677 1.91153 51.5453 1.64502 49.2867C1.11313 44.7789 1.46632 38.7356 2.18408 32.6526C2.90078 26.5786 3.97635 20.5009 4.87344 15.9392C5.32186 13.659 5.72541 11.759 6.01676 10.4294C6.16243 9.76464 6.28003 9.24256 6.36116 8.88693Z" fill="white" stroke="black"/>
<path fill-rule="evenodd" clip-rule="evenodd" d="M16.3142 21.2259C15.4641 21.4864 15.0518 21.6432 14.6317 21.8653C13.7904 22.3101 13.1792 22.9122 12.8424 23.6277L12.744 23.8368L12.634 23.6878C12.4463 23.4338 12.0266 23.0058 11.7878 22.8251C11.5077 22.6132 11.2662 22.478 11.2334 22.5147C11.2095 22.5414 10.8628 23.4522 10.8629 23.4878C10.863 23.4976 10.9431 23.5504 11.041 23.6052C11.2395 23.7162 11.7825 24.2702 11.9422 24.5247C12.0466 24.6912 12.2652 25.1487 12.3027 25.2794L12.3256 25.3589L12.1285 25.3358C12.0201 25.3231 11.6039 25.2523 11.2035 25.1786C9.99737 24.9564 9.30642 24.9631 8.63274 25.2035C8.07256 25.4035 7.62431 25.7045 7.22472 26.1491C6.40204 27.0644 6 28.3444 6 30.0484C6 30.9584 6.08323 31.6921 6.28279 32.5419C6.87732 35.0733 8.16402 37.03 9.70752 37.7501C10.1298 37.9471 10.311 37.9892 10.7235 37.9867C11.1729 37.9839 11.3544 37.9262 12.0005 37.5802C12.5464 37.2879 12.702 37.234 13 37.234C13.3002 37.234 13.4528 37.2875 14.0224 37.5925C14.2695 37.7248 14.5663 37.8644 14.6818 37.9027C15.2399 38.0875 15.8049 38.0105 16.4716 37.6588C17.9303 36.8891 19.1466 34.9714 19.7172 32.5419C19.9168 31.6921 20 30.9584 20 30.0484C20 28.9523 19.843 28.081 19.502 27.2848C18.9085 25.899 17.6678 25.0172 16.3114 25.0172C16.1255 25.0172 15.9735 25.0102 15.9735 25.0016C15.9735 24.9931 16.0376 24.8796 16.1161 24.7496C16.5309 24.0617 16.7552 23.281 16.9649 21.7947C17.0178 21.4201 17.0681 21.0875 17.0768 21.0555C17.0856 21.0236 17.0813 20.9986 17.0673 21.0001C17.0534 21.0015 16.7145 21.1031 16.3142 21.2259ZM15.8185 22.5505C15.8185 22.5642 15.7762 22.7446 15.7245 22.9513C15.3981 24.2577 14.7776 25.029 13.8482 25.2839C13.717 25.32 13.5768 25.3494 13.5368 25.3494C13.4668 25.3494 13.4647 25.3421 13.4818 25.1584C13.5916 23.9736 14.1577 23.2508 15.4159 22.6886C15.7937 22.5199 15.8186 22.5113 15.8185 22.5505ZM11.2362 26.292C12.7067 26.5551 13.291 26.5552 14.7638 26.2925C16.2741 26.0232 16.8026 26.0535 17.4757 26.4479C18.224 26.8864 18.6956 27.6964 18.9054 28.9037C18.9717 29.285 18.9951 30.3587 18.9487 30.888C18.7953 32.638 18.1595 34.3957 17.2465 35.5942C16.7218 36.2829 15.9517 36.8287 15.408 36.8972C15.1519 36.9295 14.9501 36.8652 14.4093 36.5787C13.8241 36.2688 13.6298 36.1953 13.2689 36.1472C12.9545 36.1053 12.5693 36.145 12.2742 36.2498C12.1708 36.2864 11.8633 36.4347 11.5907 36.5792C11.0511 36.8652 10.8489 36.9296 10.592 36.8972C10.0483 36.8287 9.2782 36.2829 8.75354 35.5942C7.84047 34.3957 7.20471 32.638 7.0513 30.888C7.0049 30.3587 7.02835 29.285 7.09463 28.9037C7.26012 27.9514 7.6385 27.1528 8.12168 26.7358C8.44399 26.4577 8.74155 26.2996 9.17478 26.1763C9.549 26.0698 10.1975 26.1062 11.2362 26.292ZM9.15365 26.8965C8.64275 27.2662 8.11806 28.0352 7.81508 28.8584C7.70862 29.1477 7.58113 29.6249 7.58011 29.738C7.57974 29.7801 7.66104 29.8061 7.97456 29.8639C8.19177 29.9039 8.41385 29.945 8.46812 29.9552C8.56302 29.9731 8.56801 29.9683 8.59982 29.8293C8.80799 28.9197 9.27083 28.1185 9.8067 27.7403L9.87884 27.6894L9.65824 27.217C9.53692 26.9573 9.42031 26.7452 9.39912 26.7458C9.37793 26.7463 9.26748 26.8142 9.15365 26.8965Z" fill="black"/>
<path d="M25.5 2.5C25.5 2.61206 25.4264 2.81076 25.0742 3.07097C24.7318 3.32394 24.2044 3.57282 23.5077 3.79053C22.1203 4.22409 20.173 4.5 18 4.5C15.827 4.5 13.8797 4.22409 12.4923 3.79053C11.7956 3.57282 11.2682 3.32394 10.9258 3.07097C10.5736 2.81076 10.5 2.61206 10.5 2.5C10.5 2.38794 10.5736 2.18924 10.9258 1.92903C11.2682 1.67606 11.7956 1.42718 12.4923 1.20947C13.8797 0.775912 15.827 0.5 18 0.5C20.173 0.5 22.1203 0.775912 23.5077 1.20947C24.2044 1.42718 24.7318 1.67606 25.0742 1.92903C25.4264 2.18924 25.5 2.38794 25.5 2.5Z" fill="white" stroke="black"/>
<line x1="12.5" y1="4" x2="12.5" y2="9" stroke="black"/>
<line x1="23.5" y1="4" x2="23.5" y2="9" stroke="black"/>
<path fill-rule="evenodd" clip-rule="evenodd" d="M26.7236 25.0465C26.0599 25.1358 25.5908 25.2732 25.029 25.5428C24.6909 25.705 24.4608 25.8443 24.0641 26.1268L23.7335 26.3622L23.9437 26.61C24.5642 27.3415 25.246 28.6075 25.4809 29.4648C25.5439 29.6946 25.618 30.0876 25.618 30.1917C25.618 30.2331 25.5505 30.3651 25.3804 30.6562C24.8283 31.6007 24.6768 31.9805 24.3395 33.265C23.8017 35.3129 22.9228 36.9419 21.4789 38.5666C21.114 38.9772 20.4323 39.6426 19.9808 40.0289C18.6013 41.2092 17.4379 42.0069 15.4861 43.1106C15.212 43.2657 14.7022 43.5539 14.3533 43.7512C12.0464 45.0556 10.4946 46.1202 8.60769 47.6929C8.18973 48.0412 8.0582 48.1752 7.92864 48.3848C7.77711 48.6299 7.52102 49.1523 7.35959 49.5455C7.23657 49.8452 7.02358 50.4076 7.00004 50.495C6.99703 50.5061 7.16675 50.7916 7.3772 51.1293C7.58765 51.4671 7.77525 51.7699 7.79408 51.8022C7.82317 51.8521 7.90464 51.8985 8.33582 52.1109C9.03519 52.4553 9.35136 52.5748 9.76769 52.652C10.1122 52.7158 10.9457 52.6924 11.843 52.5936C15.9007 52.1467 20.2575 50.4187 23.9108 47.8071C25.9039 46.3824 27.5496 44.8661 28.8256 43.2791C30.6657 40.9904 31.7578 38.5049 32.0272 35.9928C32.0652 35.639 32.0804 34.7685 32.0541 34.4522C31.9189 32.8247 31.2714 31.5024 30.0858 30.4326C29.8345 30.2058 29.5596 29.9963 29.1649 29.7306C28.8299 29.5052 28.691 29.3704 28.4661 29.0521C27.8276 28.1486 27.3365 26.7223 27.1661 25.2764L27.1335 25L27.0872 25.0019C27.0617 25.003 26.8981 25.023 26.7236 25.0465ZM26.2687 26.6895C26.3897 27.3408 26.6586 28.1292 26.9874 28.7972C27.272 29.3752 27.5608 29.7988 27.9353 30.1872C28.163 30.4235 28.2962 30.5331 28.6902 30.8083C30.0291 31.7435 30.677 32.7579 30.8785 34.2347C30.9232 34.5618 30.9318 35.3546 30.8951 35.7481C30.7645 37.1462 30.3599 38.5075 29.6692 39.8716C28.7488 41.6896 27.3626 43.423 25.545 45.0291C21.8996 48.25 17.55 50.4224 13.1208 51.2343C11.8874 51.4604 10.3322 51.5954 9.98831 51.5063C9.84855 51.4701 9.41413 51.3143 9.41462 51.3006C9.41502 51.2891 9.85101 51.0303 10.4655 50.6768C11.6182 50.0136 12.9531 49.3352 14.163 48.7977C14.3474 48.7157 14.9306 48.4632 15.4589 48.2364C16.6783 47.7131 16.9825 47.5758 17.5524 47.2912C18.9213 46.6077 20.0191 45.8953 21.3496 44.8272C22.5744 43.8438 23.4305 43.0393 24.2203 42.1291C26.1202 39.94 27.3663 37.4284 27.9109 34.6904C28.0818 33.8316 28.1757 33.0001 28.2035 32.1005L28.2156 31.7063H27.6438C27.139 31.7063 27.0706 31.7096 27.0609 31.7349C27.0548 31.7507 27.0497 31.8914 27.0494 32.0476C27.0491 32.2038 27.0374 32.4906 27.0234 32.685C26.7935 35.8693 25.5748 38.7901 23.434 41.2877C23.149 41.6201 22.8467 41.941 22.4438 42.3387C21.9755 42.8009 21.7078 43.0417 21.0233 43.6162C19.9702 44.5002 18.8422 45.2902 17.8243 45.8568C17.149 46.2326 16.5245 46.5249 15.0002 47.1787C13.3967 47.8664 12.7956 48.1432 11.6889 48.7031C10.8431 49.1311 9.94508 49.6312 8.9732 50.2154C8.67579 50.3942 8.42262 50.5442 8.41062 50.5488C8.3986 50.5534 8.36192 50.5191 8.32911 50.4725L8.26944 50.3879L8.31927 50.25C8.46895 49.8359 8.78477 49.1724 8.9313 48.9643C8.97717 48.8991 9.09823 48.7804 9.24207 48.6596C10.5386 47.5708 11.7796 46.6545 13.0483 45.8492C13.7771 45.3866 14.3315 45.0632 16.0571 44.0942C18.0074 42.999 19.2008 42.1966 20.5158 41.0964C21.5352 40.2436 22.3761 39.366 23.107 38.3923C24.1346 37.0233 24.8679 35.5637 25.3368 33.9538C25.3906 33.7693 25.4794 33.4472 25.5343 33.2378C25.7378 32.4614 25.8515 32.186 26.2789 31.4344C26.6039 30.8629 26.6615 30.752 26.7168 30.5916C26.7608 30.4637 26.7666 30.4208 26.7657 30.2291C26.7639 29.8659 26.6868 29.3969 26.5507 28.9212C26.3467 28.2085 25.9501 27.4167 25.4699 26.7634C25.4317 26.7115 25.4005 26.6624 25.4005 26.6544C25.4005 26.6309 25.6015 26.5574 25.9156 26.4662C26.0759 26.4196 26.2083 26.3827 26.2097 26.384C26.2112 26.3854 26.2377 26.5229 26.2687 26.6895Z" fill="black"/>
</svg>
