<svg width="797" height="445" viewBox="0 0 797 445" fill="none" xmlns="http://www.w3.org/2000/svg">
<path d="M755.696 113.502C800 159 757.288 202.293 736.005 213.314C753.668 222.796 773.709 235.566 786.129 255.734C810 294.5 792.976 346 736.005 379.5C679.035 413 593.5 385 581.457 368.647C565 392.976 519.5 423.875 489 431.5C425 447.5 341.538 454.659 231 413C163.186 387.443 139.892 345.565 139.892 329.97C126.167 353.051 79.0272 350.556 60.5292 329.97C42.0312 309.383 46.3555 291.779 52.772 270.706C6.9726 267.45 -4.51215 233.901 1.45496 201.462C6.22864 175.511 37.6553 169.439 52.772 169.647C30.2959 159.873 2.05457 130.137 29.5003 68.5868C60.5294 -0.999893 139.892 -4.53599 196.579 3.08543C263.457 12.0768 294.44 51.7438 302.197 51.7438C309.954 51.7438 393.436 23.4813 489 28.5003C544.737 31.4276 592.198 38.0193 613.083 44.2579C633.968 50.4964 635.014 54.3755 638.741 38.0193C642.469 21.6632 678.272 26.6538 690.655 38.0193C704.049 50.3122 697.617 61.1009 690.655 68.5868C702.391 74.2012 731.828 91.0444 755.696 113.502Z" fill="white"/>
</svg>
