<svg width="41" height="28" viewBox="0 0 41 28" fill="none" xmlns="http://www.w3.org/2000/svg">
<path d="M728.727,457.057a10.883,10.883,0,0,0-3.5-4.447A8.441,8.441,0,0,0,720.143,451a8.15,8.15,0,0,0-5.846,2.176A7.242,7.242,0,0,0,712,458.665a5.785,5.785,0,0,0,1.924,4.636,8.392,8.392,0,0,0,5.624,1.656,6.224,6.224,0,0,1,2.812.4,2.324,2.324,0,0,1,.641,1.963,7.872,7.872,0,0,1-2.96,5.741,18.537,18.537,0,0,1-4.982,3l0.006,0.025A1.482,1.482,0,0,0,714,477.5a1.5,1.5,0,0,0,1.5,1.5h-23a1.505,1.505,0,0,0,.189-0.038l0,0.007a17.255,17.255,0,0,0,5.771-2.154,20.448,20.448,0,0,0,6.3-5.88,12.409,12.409,0,0,0,2.244-7.445,15.477,15.477,0,0,0-1.282-6.433,10.883,10.883,0,0,0-3.5-4.447A8.441,8.441,0,0,0,697.143,451a8.15,8.15,0,0,0-5.846,2.176A7.242,7.242,0,0,0,689,458.665a5.785,5.785,0,0,0,1.924,4.636,8.392,8.392,0,0,0,5.624,1.656,6.224,6.224,0,0,1,2.812.4,2.324,2.324,0,0,1,.641,1.963,7.872,7.872,0,0,1-2.96,5.741,18.537,18.537,0,0,1-4.982,3l0.006,0.025A1.482,1.482,0,0,0,691,477.5a1.5,1.5,0,0,0,1.5,1.5H689V451h41v12.288A15.381,15.381,0,0,0,728.727,457.057ZM715.69,478.969a17.252,17.252,0,0,0,5.772-2.154,20.448,20.448,0,0,0,6.3-5.88A12.4,12.4,0,0,0,730,463.794V479H715.5a1.505,1.505,0,0,0,.189-0.038v0.007Z" transform="translate(-689 -451)"/>
</svg>
