<svg width="117" height="62" viewBox="0 0 117 62" fill="none" xmlns="http://www.w3.org/2000/svg">
<path d="M109.76 31.2496C108.58 44.0501 100.318 53.8696 57.8306 53.8696C15.3429 53.8696 0 44.0501 0 30.5482C0 17.0464 5.90112 3.1938 57.8306 3.89519C109.76 4.59659 110.94 18.4492 109.76 31.2496Z" fill="#70964B"/>
<path opacity="0.4" d="M113.24 27.0861C114.022 39.8695 107.313 50.5057 65.0963 55.2979C22.8797 60.0901 6.13529 52.1163 4.07365 38.7727C2.012 25.4292 5.76027 11.0735 57.4655 5.90952C109.171 0.745561 112.459 14.3026 113.24 27.0861Z" fill="#70964B"/>
<path d="M37.6733 19.28C38.4839 19.28 39.1453 19.5467 39.6573 20.08C40.1906 20.6133 40.4573 21.3067 40.4573 22.16V39.28C40.4573 40.1547 40.2013 40.8587 39.6893 41.392C39.1773 41.9253 38.5159 42.192 37.7053 42.192C36.7453 42.192 36.0199 41.872 35.5293 41.232L25.8013 29.104V39.28C25.8013 40.1547 25.5559 40.8587 25.0653 41.392C24.5746 41.9253 23.9133 42.192 23.0813 42.192C22.2706 42.192 21.6093 41.9253 21.0973 41.392C20.5853 40.8587 20.3293 40.1547 20.3293 39.28V22.16C20.3293 21.3067 20.5853 20.6133 21.0973 20.08C21.6093 19.5467 22.2706 19.28 23.0813 19.28C23.9986 19.28 24.7133 19.6 25.2253 20.24L34.9533 32.336V22.16C34.9533 21.2853 35.1986 20.592 35.6893 20.08C36.2013 19.5467 36.8626 19.28 37.6733 19.28ZM47.268 42C46.3933 42 45.7213 41.7653 45.252 41.296C44.7827 40.8267 44.548 40.1547 44.548 39.28V22.16C44.548 21.2853 44.7827 20.6133 45.252 20.144C45.7213 19.6747 46.3933 19.44 47.268 19.44H58.34C59.2573 19.44 59.9507 19.632 60.42 20.016C60.8893 20.4 61.124 20.9547 61.124 21.68C61.124 23.216 60.196 23.984 58.34 23.984H50.276V28.272H57.7C59.556 28.272 60.484 29.0293 60.484 30.544C60.484 31.2693 60.2493 31.824 59.78 32.208C59.3107 32.592 58.6173 32.784 57.7 32.784H50.276V37.456H58.34C60.196 37.456 61.124 38.224 61.124 39.76C61.124 40.4853 60.8893 41.04 60.42 41.424C59.9507 41.808 59.2573 42 58.34 42H47.268ZM91.5078 21.072C91.7211 20.4747 92.0624 20.016 92.5318 19.696C93.0224 19.376 93.5558 19.216 94.1318 19.216C94.8358 19.216 95.4438 19.44 95.9558 19.888C96.4891 20.336 96.7558 20.944 96.7558 21.712C96.7558 22.0533 96.6704 22.48 96.4998 22.992L90.0678 40.4C89.8544 40.9973 89.4598 41.4667 88.8838 41.808C88.3291 42.128 87.7104 42.288 87.0278 42.288C86.3451 42.288 85.7264 42.128 85.1718 41.808C84.6171 41.4667 84.2331 40.9973 84.0198 40.4L79.8598 28.528L75.5078 40.4C75.2731 40.9973 74.8784 41.4667 74.3238 41.808C73.7691 42.128 73.1611 42.288 72.4998 42.288C71.8171 42.288 71.1984 42.128 70.6438 41.808C70.0891 41.4667 69.7051 40.9973 69.4918 40.4L63.0278 22.992C62.8784 22.5653 62.8038 22.16 62.8038 21.776C62.8038 20.9867 63.0811 20.368 63.6358 19.92C64.2118 19.4507 64.8731 19.216 65.6198 19.216C66.2171 19.216 66.7611 19.376 67.2518 19.696C67.7638 19.9947 68.1264 20.4533 68.3398 21.072L72.7238 33.68L77.3638 21.072C77.5771 20.4747 77.9184 20.016 78.3878 19.696C78.8784 19.376 79.4118 19.216 79.9878 19.216C80.5638 19.216 81.0864 19.376 81.5558 19.696C82.0251 20.016 82.3664 20.4853 82.5798 21.104L86.9318 33.968L91.5078 21.072Z" fill="white"/>
</svg>
