<svg width="1920" height="776" viewBox="0 0 1920 776" fill="none" xmlns="http://www.w3.org/2000/svg">
<path d="M134.364 9.55651H-7L-4.97328 776C4.31587 775.786 27.7583 773.563 47.2148 766.379C71.5355 757.4 116.63 747.138 144.498 747.138C172.365 747.138 228.607 774.717 271.674 759.966C314.742 745.214 373.517 739.442 435.839 752.911C498.161 766.379 519.441 758.042 575.683 747.138C631.924 736.235 660.805 752.911 686.646 766.379C712.487 779.848 740.861 777.924 779.368 766.379C817.876 754.835 832.063 747.138 846.757 747.138C861.451 747.138 893.372 758.042 907.052 758.042C920.732 758.041 941.506 749.704 967.347 747.138C993.188 744.573 1033.22 753.552 1058.04 761.89C1077.9 768.56 1098.41 764.669 1106.18 761.89C1138.94 750.559 1214 731.745 1252.1 747.138C1299.73 766.379 1337.22 761.89 1355.46 755.476C1373.7 749.062 1421.33 740.724 1439.57 747.138C1457.81 753.552 1488.72 761.89 1522.67 755.476C1556.62 749.062 1597.15 754.193 1637.69 768.304C1678.22 782.414 1736.99 768.303 1777.02 761.89C1809.04 756.759 1890.35 764.028 1927 768.304V2.50137C1900.15 -4.55376 1841.88 45.4735 1755.24 21.1013C1668.59 -3.27099 1670.11 21.1013 1599.68 30.0805C1529.26 39.0597 1531.28 15.3289 1452.24 15.3289C1373.2 15.3289 1367.12 50.6045 1278.96 21.1013C1190.79 -8.402 1179.59 -1.67267 1149.25 9.55651C1128.45 17.252 1081.38 32.646 1040.82 21.1013C1005.53 11.0585 966.84 32.646 943.533 32.646C920.226 32.646 870.855 9.55651 830.543 9.55651C790.232 9.55651 740.914 32.646 702.353 32.646C658.316 32.646 630.616 9.55651 598.99 9.55651C580.75 9.55651 522.481 29.4391 507.281 32.646C492.08 35.8529 442.426 9.5565 402.398 21.1013C362.37 32.646 297.515 21.1013 258.501 9.55651C219.486 -1.98825 170.338 9.55651 134.364 9.55651Z" fill="#7C92B8"/>
</svg>
