<svg width="1920" height="776" viewBox="0 0 1920 776" fill="none" xmlns="http://www.w3.org/2000/svg">
<path d="M132.364 9.55651H-9L-6.97328 776C2.31587 775.786 25.7583 773.563 45.2148 766.379C69.5355 757.4 114.63 747.138 142.498 747.138C170.365 747.138 226.607 774.717 269.674 759.966C312.742 745.214 371.517 739.442 433.839 752.911C496.161 766.379 517.441 758.042 573.683 747.138C629.924 736.235 658.805 752.911 684.646 766.379C710.487 779.848 738.861 777.924 777.368 766.379C815.876 754.835 830.063 747.138 844.757 747.138C859.451 747.138 891.372 758.042 905.052 758.042C918.732 758.041 939.506 749.704 965.347 747.138C991.188 744.573 1031.22 753.552 1056.04 761.89C1075.9 768.56 1096.41 764.669 1104.18 761.89C1136.94 750.559 1212 731.745 1250.1 747.138C1297.73 766.379 1335.22 761.89 1353.46 755.476C1371.7 749.062 1419.33 740.724 1437.57 747.138C1455.81 753.552 1486.72 761.89 1520.67 755.476C1554.62 749.062 1595.15 754.193 1635.69 768.304C1676.22 782.414 1734.99 768.303 1775.02 761.89C1807.04 756.759 1888.35 764.028 1925 768.304V2.50137C1898.15 -4.55376 1839.88 45.4735 1753.24 21.1013C1666.59 -3.27099 1668.11 21.1013 1597.68 30.0805C1527.26 39.0597 1529.28 15.3289 1450.24 15.3289C1371.2 15.3289 1365.12 50.6045 1276.96 21.1013C1188.79 -8.402 1177.59 -1.67267 1147.25 9.55651C1126.45 17.252 1079.38 32.646 1038.82 21.1013C1003.53 11.0585 964.84 32.646 941.533 32.646C918.226 32.646 868.855 9.55651 828.543 9.55651C788.232 9.55651 738.914 32.646 700.353 32.646C656.316 32.646 628.616 9.55651 596.99 9.55651C578.75 9.55651 520.481 29.4391 505.281 32.646C490.08 35.8529 440.426 9.5565 400.398 21.1013C360.37 32.646 295.515 21.1013 256.501 9.55651C217.486 -1.98825 168.338 9.55651 132.364 9.55651Z" fill="#30A757"/>
</svg>
