<svg width="1920" height="686" viewBox="0 0 1920 686" fill="none" xmlns="http://www.w3.org/2000/svg">
<path d="M140.56 8.44815H0L2.0152 686C11.2515 685.811 34.5606 683.845 53.9065 677.495C78.0888 669.557 122.927 660.485 150.636 660.485C178.345 660.485 234.266 684.866 277.089 671.825C319.912 658.784 378.353 653.682 440.32 665.588C502.287 677.495 523.447 670.124 579.369 660.485C635.29 650.847 664.007 665.588 689.701 677.495C715.394 689.402 743.607 687.701 781.896 677.495C820.184 667.289 834.291 660.485 848.901 660.485C863.511 660.485 895.25 670.124 908.853 670.124C922.456 670.124 943.111 662.753 968.805 660.485C994.499 658.217 1034.3 666.155 1058.99 673.526C1078.73 679.423 1099.12 675.983 1106.85 673.526C1139.42 663.509 1214.05 646.878 1251.94 660.485C1299.3 677.495 1336.58 673.526 1354.71 667.856C1372.85 662.186 1420.21 654.816 1438.35 660.485C1456.48 666.155 1487.21 673.526 1520.97 667.856C1554.72 662.186 1595.03 666.722 1635.33 679.196C1675.63 691.67 1734.08 679.196 1773.88 673.526C1805.72 668.99 1886.56 675.416 1923 679.196V2.21126C1896.3 -4.02562 1838.36 40.1995 1752.21 18.6539C1666.06 -2.89163 1667.57 18.6539 1597.55 26.5918C1527.52 34.5296 1529.53 13.551 1450.94 13.551C1372.35 13.551 1366.3 44.7354 1278.64 18.6539C1190.98 -7.42754 1179.84 -1.47867 1149.67 8.44815C1128.99 15.2511 1082.19 28.8597 1041.86 18.6539C1006.77 9.77596 968.301 28.8597 945.127 28.8597C921.952 28.8597 872.862 8.44815 832.779 8.44815C792.697 8.44815 743.66 28.8597 705.318 28.8597C661.532 28.8597 633.989 8.44815 602.543 8.44815C584.407 8.44815 526.47 26.0248 511.356 28.8597C496.242 31.6947 446.87 8.44814 407.069 18.6539C367.269 28.8597 302.783 18.6539 263.991 8.44815C225.198 -1.75765 176.33 8.44815 140.56 8.44815Z" fill="#FFC525"/>
</svg>
