<svg width="0" height="0" class="hidden">
  <symbol fill="none" xmlns="http://www.w3.org/2000/svg" viewBox="0 0 26 65" id="baby-juice">
    <rect x="0.5" y="16.7285" width="23.3655" height="47.7311" fill="white" stroke="#30a757"></rect>
    <path d="M4.60583 22.0799H5.29626V22.596H4.60583V23.7513H3.97009V22.596H1.70398V22.2235L3.9325 18.7747H4.60583V22.0799ZM2.42175 22.0799H3.97009V19.6395L3.8949 19.7762L2.42175 22.0799ZM7.74353 21.0819H9.13123V21.68H7.74353V23.2523H7.10779V21.68H5.72009V21.0819H7.10779V19.6292H7.74353V21.0819Z" fill="#30a757"></path>
    <path d="M17.5127 16.2285V1.00001" stroke="#30a757"></path>
    <line x1="17.1582" y1="0.709381" x2="24.7724" y2="11.3693" stroke="#30a757"></line>
    <line x1="6.0914" y1="59.891" x2="18.2742" y2="59.891" stroke="#30a757"></line>
    <path d="M22.1867 28.0969C22.79 27.8614 23.4578 27.6429 24.0789 27.919C24.2524 27.9961 25.1066 28.3361 24.4508 28.6467C24.043 28.8399 23.5131 28.8246 23.06 28.8246C22.6592 28.8246 22.3917 29.3524 22.8417 29.5524C23.0738 29.6556 23.8156 29.7691 23.9333 29.9163C24.164 30.2046 24.8657 29.7718 25.0977 30.0618C25.217 30.2109 24.4924 30.1346 24.2891 30.1346C23.7824 30.1346 23.2756 30.1346 22.7689 30.1346" stroke="white" stroke-linecap="round"></path>
    <path d="M9.23248 58.3719C9.23248 58.5923 9.15222 60.5055 9.20013 60.4097C9.33374 60.1424 9.29408 59.798 9.41037 59.5363C9.49928 59.3363 9.81469 59.0188 9.81469 59.0188C9.81469 59.0188 9.81469 59.6549 9.81469 59.973C9.81469 60.3824 9.81469 60.3824 9.81469 59.973C9.81469 59.6159 9.9756 58.5252 9.66913 58.3719" stroke="white" stroke-linecap="round"></path>
    <path fill-rule="evenodd" clip-rule="evenodd" d="M16.5427 30.2407C15.4304 30.5945 14.8908 30.8073 14.3411 31.1088C13.2402 31.7128 12.4403 32.5302 11.9996 33.5016L11.8708 33.7855L11.7268 33.5833C11.4813 33.2383 10.932 32.6573 10.6196 32.412C10.2531 32.1242 9.937 31.9406 9.89404 31.9905C9.86275 32.0268 9.40908 33.2633 9.40924 33.3117C9.40932 33.325 9.51418 33.3967 9.6423 33.471C9.90211 33.6218 10.6126 34.3739 10.8216 34.7195C10.9583 34.9455 11.2443 35.5665 11.2934 35.744L11.3233 35.8519L11.0654 35.8206C10.9235 35.8033 10.3789 35.7073 9.85501 35.6072C8.27662 35.3055 7.37244 35.3145 6.49088 35.641C5.75782 35.9125 5.17125 36.3212 4.64835 36.9248C3.57179 38.1675 3.04568 39.9053 3.04568 42.2187C3.04568 43.4542 3.15459 44.4503 3.41574 45.604C4.19374 49.0408 5.87751 51.6973 7.89733 52.6749C8.44994 52.9423 8.68701 52.9996 9.22677 52.9961C9.81496 52.9924 10.0525 52.914 10.8979 52.4443C11.6123 52.0474 11.8159 51.9742 12.2058 51.9742C12.5987 51.9742 12.7983 52.0469 13.5437 52.4609C13.8672 52.6406 14.2555 52.8301 14.4067 52.8821C15.137 53.1331 15.8764 53.0285 16.7488 52.5509C18.6576 51.5059 20.2493 48.9025 20.996 45.604C21.2571 44.4503 21.366 43.4542 21.366 42.2187C21.366 40.7305 21.1606 39.5476 20.7144 38.4667C19.9377 36.5853 18.3141 35.3881 16.5392 35.3881C16.2959 35.3881 16.0969 35.3785 16.0969 35.3669C16.0969 35.3553 16.1809 35.2013 16.2835 35.0247C16.8264 34.0908 17.1199 33.0308 17.3943 31.013C17.4635 30.5045 17.5294 30.0529 17.5408 30.0095C17.5522 29.9661 17.5466 29.9322 17.5283 29.9342C17.5101 29.9361 17.0666 30.0741 16.5427 30.2407ZM15.8941 32.0391C15.8941 32.0578 15.8388 32.3026 15.7712 32.5833C15.3439 34.3569 14.532 35.4041 13.3158 35.7502C13.1441 35.7991 12.9607 35.8391 12.9083 35.8391C12.8167 35.8391 12.814 35.8292 12.8363 35.5798C12.98 33.9712 13.7208 32.9899 15.3673 32.2267C15.8617 31.9976 15.8943 31.986 15.8941 32.0391ZM9.89777 37.1188C11.822 37.4759 12.5866 37.4761 14.5139 37.1194C16.4903 36.7538 17.1819 36.7949 18.0627 37.3304C19.0419 37.9258 19.659 39.0255 19.9336 40.6646C20.0203 41.1823 20.051 42.64 19.9903 43.3586C19.7895 45.7345 18.9576 48.1208 17.7627 49.748C17.0762 50.6829 16.0684 51.424 15.3569 51.517C15.0218 51.5609 14.7578 51.4735 14.05 51.0846C13.2842 50.6638 13.03 50.564 12.5577 50.4987C12.1463 50.4418 11.6422 50.4957 11.2561 50.638C11.1208 50.6878 10.7183 50.8891 10.3617 51.0852C9.65555 51.4736 9.39096 51.561 9.05475 51.517C8.3433 51.424 7.33552 50.6829 6.64895 49.748C5.45412 48.1208 4.62216 45.7345 4.42141 43.3586C4.36069 42.64 4.39138 41.1823 4.47812 40.6646C4.69468 39.3717 5.18981 38.2874 5.82211 37.7213C6.24388 37.3437 6.63327 37.1291 7.20018 36.9617C7.68989 36.8172 8.53854 36.8665 9.89777 37.1188ZM7.17254 37.9396C6.50397 38.4414 5.81736 39.4854 5.42088 40.6031C5.28157 40.9959 5.11475 41.6438 5.11341 41.7972C5.11292 41.8545 5.21932 41.8897 5.62958 41.9681C5.91383 42.0225 6.20444 42.0783 6.27545 42.0921C6.39964 42.1164 6.40617 42.11 6.44779 41.9212C6.72021 40.6863 7.32587 39.5986 8.02711 39.085L8.12151 39.016L7.83284 38.3747C7.67408 38.022 7.52148 37.7341 7.49375 37.7348C7.46603 37.7356 7.32149 37.8277 7.17254 37.9396Z" fill="#30a757"></path>
  </symbol>
  <symbol fill="#30a757" xmlns="http://www.w3.org/2000/svg" viewBox="0 0 22 50" id="baby-water">
    <path d="M21.8566 33.1703C21.8566 32.0579 21.3365 31.0668 20.5206 30.4306C21.3364 29.7944 21.8657 28.8033 21.8657 27.6909C21.8657 26.5197 21.2596 25.4828 20.3689 24.8532C21.2656 24.1448 21.8198 23.0489 21.8198 21.82V14.5256L14.7975 5.38186H16.3405V0.000244141H5.47937V5.38186H7.12009L0 14.5256V21.8202C0 23.0491 0.601659 24.1449 1.49843 24.8534C0.607713 25.483 0.0367193 26.5198 0.0367193 27.6911C0.0367193 28.8034 0.569041 29.7946 1.38486 30.4308C0.569041 31.067 0.0458984 32.0581 0.0458984 33.1705C0.0458984 34.3417 0.60615 35.3786 1.49687 36.0082C0.600096 36.7166 0 37.8125 0 39.0414V45.3036C0 47.4347 1.78281 49.2174 3.91385 49.2174H7.8277V49.1531C8.47917 49.6531 9.29323 50.0002 10.176 50.0002H11.7416C12.6244 50.0002 13.4384 49.6532 14.0899 49.1531V49.2174H18.0037C20.1349 49.2174 21.8197 47.4346 21.8197 45.3036V39.0414C21.8197 37.8125 21.267 36.7167 20.3702 36.0082C21.2611 35.3785 21.8566 34.3416 21.8566 33.1703ZM6.94714 3.9141V1.46791H14.8728V3.9141H6.94714ZM8.97184 5.38186H12.9457L19.6445 14.0902H2.27304L8.97184 5.38186ZM18.3952 31.2134C19.5013 31.2134 20.4011 32.1132 20.4011 33.2193C20.4011 34.3253 19.5013 35.2251 18.3952 35.2251H16.4383V36.6928H18.0038C19.3257 36.6928 20.3522 37.7192 20.3522 39.0411V45.3033C20.3522 46.6252 19.3258 47.7495 18.0038 47.7495H15.2519C15.4789 47.1624 15.6066 46.6622 15.6066 46.0861H14.1389C14.1389 47.408 13.0635 48.5323 11.7417 48.5323H10.176C8.85426 48.5323 7.77878 47.4081 7.77878 46.0861H6.31111C6.31111 46.6623 6.43874 47.1625 6.66579 47.7495H3.91385C2.59208 47.7495 1.46767 46.6253 1.46767 45.3033V39.0411C1.46767 37.7192 2.59198 36.6928 3.91385 36.6928H11.7417V35.2251H3.52254C2.41649 35.2251 1.51669 34.3253 1.51669 33.2193C1.51669 32.1132 2.41649 31.2134 3.52254 31.2134H11.7417V29.7457H3.52254C2.41649 29.7457 1.51669 28.8459 1.51669 27.7399C1.51669 26.6338 2.41649 25.734 3.52254 25.734H11.7417V24.2664H3.91385C2.59208 24.2664 1.46767 23.1421 1.46767 21.8202V15.558H20.3522V21.8202C20.3522 23.142 19.3258 24.2664 18.0038 24.2664H16.4383V25.734H18.3952C19.5013 25.734 20.4011 26.6338 20.4011 27.7399C20.4011 28.8459 19.5013 29.7457 18.3952 29.7457H16.4383V31.2134H18.3952Z"></path>
    <path d="M7.04501 10.959H5.47949V12.4267H7.04501V10.959Z"></path>
    <path d="M8.61044 9.39355H7.04492V10.8612H8.61044V9.39355Z"></path>
    <path d="M14.8731 29.7458H13.3076V31.2135H14.8731V29.7458Z"></path>
    <path d="M14.8731 24.2664H13.3076V25.734H14.8731V24.2664Z"></path>
    <path d="M14.8731 35.2251H13.3076V36.6928H14.8731V35.2251Z"></path>
  </symbol>
  <symbol fill="none" xmlns="http://www.w3.org/2000/svg" viewBox="0 0 17 43" id="drinking-porridge">
    <rect x="0.5" y="11.5" width="15" height="31" fill="white" stroke="#30a757"></rect>
    <path d="M11.5 11V1" stroke="#30a757"></path>
    <line x1="11.4069" y1="0.709381" x2="16.4069" y2="7.70938" stroke="#30a757"></line>
    <path d="M13.5 31.5C13.5 32.55 12.9337 33.5387 11.9426 34.282C10.9514 35.0254 9.55913 35.5 8 35.5C6.44087 35.5 5.04859 35.0254 4.05736 34.282C3.06629 33.5387 2.5 32.55 2.5 31.5C2.5 30.953 2.64473 30.848 2.70843 30.8137C2.84527 30.7401 3.12451 30.7171 3.67309 30.8109C3.97988 30.8633 4.30053 30.9368 4.66023 31.0192C4.93497 31.0822 5.2325 31.1504 5.56403 31.2184C6.29675 31.3688 7.12328 31.5 8 31.5C8.87672 31.5 9.70325 31.3688 10.436 31.2184C10.7675 31.1504 11.065 31.0822 11.3398 31.0192C11.6995 30.9368 12.0201 30.8633 12.3269 30.8109C12.8755 30.7171 13.1547 30.7401 13.2916 30.8137C13.3553 30.848 13.5 30.953 13.5 31.5Z" fill="white" stroke="#30a757"></path>
    <path d="M2.80676 30.5744C4.05415 30.5744 3.39868 30.2926 4.07833 29.6809C4.40064 29.3908 5.03324 29.5043 5.35848 29.2513C5.57726 29.0811 5.52326 28.8017 5.74511 28.6843C5.94821 28.5767 6.32306 28.5037 6.48399 28.375C6.78872 28.1312 7.43611 28.2547 7.83288 28.2547C8.71518 28.2547 9.29806 29.0279 10.23 29.0279C11.1186 29.0279 11.7241 29.9558 12.5497 29.9558" stroke="#30a757" stroke-linecap="round"></path>
    <path d="M5 21C7.79028 23.8 3.60479 23.8 5.93006 27" stroke="#30a757"></path>
    <path d="M9 21C11.7903 23.8 7.60479 23.8 9.93006 27" stroke="#30a757"></path>
    <path d="M7 21C9.79028 23.8 5.60479 23.8 7.93006 27" stroke="#30a757"></path>
    <line x1="3" y1="39.5" x2="13" y2="39.5" stroke="#30a757"></line>
    <line x1="3" y1="14.5" x2="13" y2="14.5" stroke="#30a757"></line>
    <path d="M9.79398 13.7207C9.66294 14.0565 9.58315 14.3225 9.60282 14.6765C9.61241 14.8492 9.78516 15.0045 9.79398 15.1544C9.81249 15.4691 9.94339 15.2928 10.0595 15.1332C10.1631 14.9907 9.98108 14.6989 10.1285 14.5809C10.173 14.5453 10.5586 13.444 10.5586 14.0552C10.5586 14.4535 10.5586 14.8517 10.5586 15.25" stroke="white" stroke-linecap="round"></path>
    <path d="M5.1106 38.7625C5.11879 39.0985 5.1502 39.7691 5.44512 40.0051C5.55694 40.0945 5.50081 40.2967 5.63628 40.0529C5.74573 39.8559 5.86166 39.5599 5.87523 39.336C5.881 39.2409 5.94593 38.8834 5.99205 38.805C6.13598 38.5603 6.35313 38.842 6.35313 39.0015C6.35313 39.3679 6.35313 39.7343 6.35313 40.1007" stroke="white" stroke-linecap="round"></path>
    <path d="M14.9552 18.4041C15.0147 18.3914 16.4738 17.9914 16.4738 18.3138C16.4738 18.5658 15.5192 18.6111 15.2897 18.7386C15.1368 18.8236 14.8069 18.786 14.6897 18.9032C14.4806 19.1123 15.0542 19.1687 15.1464 19.1687C15.3796 19.1687 16.2856 19.2561 16.0809 19.2643C15.7088 19.2792 15.1633 19.4535 14.8171 19.3546C14.6496 19.3067 14.4773 18.4221 14.4773 18.2607C14.4773 18.0081 15.2266 18.1174 15.4331 18.1174C15.849 18.1174 15.8839 17.7215 16.2933 17.9262" stroke="white" stroke-linecap="round"></path>
  </symbol>
  <symbol fill="none" xmlns="http://www.w3.org/2000/svg" viewBox="0 0 35 57" id="fruit-puree">
    <path d="M6.36116 8.88693C6.3742 8.82977 6.3863 8.77691 6.39742 8.72845H29.9533C29.9616 8.77211 29.9707 8.81918 29.9803 8.86959C30.0483 9.2254 30.1469 9.74768 30.2689 10.4127C30.5131 11.7426 30.8513 13.6432 31.2271 15.924C31.9788 20.4867 32.8802 26.5665 33.4809 32.6432C34.0824 38.7275 34.3791 44.7786 33.9325 49.2961C33.7087 51.5606 33.302 53.3927 32.6835 54.6441C32.0695 55.8864 31.3041 56.4595 30.3656 56.4595H30.3092H30.2529H30.1969H30.1409H30.0851H30.0295H29.9739H29.9186H29.8633H29.8083H29.7533H29.6985H29.6438H29.5893H29.5349H29.4806H29.4265H29.3725H29.3187H29.265H29.2114H29.1579H29.1046H29.0514H28.9984H28.9454H28.8926H28.84H28.7874H28.735H28.6827H28.6306H28.5785H28.5266H28.4748H28.4232H28.3716H28.3202H28.2689H28.2177H28.1667H28.1157H28.0649H28.0142H27.9637H27.9132H27.8628H27.8126H27.7625H27.7125H27.6626H27.6128H27.5632H27.5136H27.4642H27.4149H27.3656H27.3165H27.2675H27.2186H27.1699H27.1212H27.0726H27.0241H26.9758H26.9275H26.8794H26.8313H26.7834H26.7355H26.6878H26.6401H26.5926H26.5451H26.4977H26.4505H26.4033H26.3563H26.3093H26.2624H26.2157H26.169H26.1224H26.0759H26.0295H25.9831H25.9369H25.8908H25.8447H25.7988H25.7529H25.7071H25.6614H25.6158H25.5703H25.5248H25.4795H25.4342H25.389H25.3439H25.2988H25.2539H25.209H25.1642H25.1195H25.0748H25.0303H24.9858H24.9414H24.897H24.8528H24.8086H24.7645H24.7204H24.6765H24.6326H24.5887H24.545H24.5013H24.4577H24.4141H24.3706H24.3272H24.2839H24.2406H24.1973H24.1542H24.1111H24.0681H24.0251H23.9822H23.9393H23.8965H23.8538H23.8111H23.7685H23.726H23.6835H23.641H23.5986H23.5563H23.514H23.4718H23.4296H23.3875H23.3454H23.3034H23.2614H23.2195H23.1776H23.1358H23.094H23.0523H23.0106H22.969H22.9274H22.8859H22.8444H22.8029H22.7615H22.7201H22.6788H22.6375H22.5962H22.555H22.5138H22.4727H22.4316H22.3905H22.3495H22.3085H22.2675H22.2266H22.1857H22.1448H22.104H22.0632H22.0224H21.9817H21.941H21.9003H21.8596H21.819H21.7784H21.7378H21.6973H21.6568H21.6163H21.5758H21.5353H21.4949H21.4545H21.4141H21.3737H21.3334H21.293H21.2527H21.2124H21.1721H21.1319H21.0916H21.0514H21.0112H20.971H20.9308H20.8906H20.8504H20.8102H20.7701H20.73H20.6898H20.6497H20.6096H20.5695H20.5294H20.4893H20.4492H20.4091H20.369H20.3289H20.2888H20.2488H20.2087H20.1686H20.1285H20.0885H20.0484H20.0083H19.9682H19.9281H19.888H19.8479H19.8078H19.7677H19.7276H19.6875H19.6473H19.6072H19.567H19.5269H19.4867H19.4465H19.4063H19.3661H19.3259H19.2857H19.2454H19.2051H19.1649H19.1246H19.0842H19.0439H19.0035H18.9632H18.9228H18.8824H18.8419H18.8015H18.761H18.7205H18.68H18.6394H18.5988H18.5582H18.5176H18.4769H18.4363H18.3955H18.3548H18.314H18.2732H18.2324H18.1915H18.1506H18.1097H18.0687H18.0277H17.9867H17.9456H17.9045H17.8634H17.8222H17.781H17.7397H17.6984H17.6571H17.6157H17.5743H17.5328H17.4913H17.4497H17.4081H17.3665H17.3248H17.2831H17.2413H17.1995H17.1576H17.1157H17.0737H17.0317H16.9896H16.9475H16.9053H16.8631H16.8208H16.7784H16.736H16.6936H16.6511H16.6085H16.5659H16.5232H16.4805H16.4377H16.3948H16.3519H16.3089H16.2659H16.2228H16.1796H16.1364H16.0931H16.0498H16.0063H15.9628H15.9193H15.8756H15.832H15.7882H15.7444H15.7004H15.6565H15.6124H15.5683H15.5241H15.4798H15.4355H15.3911H15.3466H15.302H15.2574H15.2126H15.1678H15.1229H15.078H15.0329H14.9878H14.9426H14.8973H14.852H14.8065H14.761H14.7153H14.6696H14.6238H14.578H14.532H14.4859H14.4398H14.3935H14.3472H14.3008H14.2543H14.2077H14.161H14.1142H14.0673H14.0203H13.9733H13.9261H13.8788H13.8315H13.784H13.7364H13.6888H13.641H13.5932H13.5452H13.4971H13.449H13.4007H13.3523H13.3039H13.2553H13.2066H13.1578H13.1089H13.0599H13.0108H12.9615H12.9122H12.8627H12.8132H12.7635H12.7137H12.6638H12.6138H12.5637H12.5134H12.4631H12.4126H12.362H12.3113H12.2605H12.2095H12.1585H12.1073H12.056H12.0045H11.953H11.9013H11.8495H11.7976H11.7456H11.6934H11.6411H11.5887H11.5361H11.4834H11.4306H11.3777H11.3246H11.2714H11.2181H11.1646H11.111H11.0573H11.0034H10.9494H10.8953H10.841H10.7866H10.732H10.6773H10.6225H10.5676H10.5125H10.4572H10.4018H10.3463H10.2906H10.2348H10.1789H10.1228H10.0665H10.0101H9.95358H9.89689H9.84006H9.78307H9.72594H9.66866H9.61122H9.55364H9.4959H9.43801H9.37997H9.32177H9.26342H9.20492H9.14626H9.08744H9.02846H8.96933H8.91004H8.85059H8.79098H8.73121H8.67128H8.61118H8.55093H8.49051H8.42993H8.36918H8.30827H8.24719H8.18595H8.12454H8.06296H8.00121H7.9393H7.87721H7.81496H7.75253H7.68993H7.62716H7.56422H7.5011H7.43781H7.37435H7.31071H7.24689H7.1829H7.11872H7.05437H6.98985H6.92514H6.86025H6.79518H6.72993H6.6645H6.59889H6.53309H6.46711H6.40094H6.33459H6.26805H6.20133H6.13442H6.06732H6.00003C4.78229 56.4595 3.84925 55.8325 3.12891 54.6116C2.39504 53.3677 1.91153 51.5453 1.64502 49.2867C1.11313 44.7789 1.46632 38.7356 2.18408 32.6526C2.90078 26.5786 3.97635 20.5009 4.87344 15.9392C5.32186 13.659 5.72541 11.759 6.01676 10.4294C6.16243 9.76464 6.28003 9.24256 6.36116 8.88693Z" fill="white" stroke="#30a757"></path>
    <path fill-rule="evenodd" clip-rule="evenodd" d="M16.3142 21.2259C15.4641 21.4864 15.0518 21.6432 14.6317 21.8653C13.7904 22.3101 13.1792 22.9122 12.8424 23.6277L12.744 23.8368L12.634 23.6878C12.4463 23.4338 12.0266 23.0058 11.7878 22.8251C11.5077 22.6132 11.2662 22.478 11.2334 22.5147C11.2095 22.5414 10.8628 23.4522 10.8629 23.4878C10.863 23.4976 10.9431 23.5504 11.041 23.6052C11.2395 23.7162 11.7825 24.2702 11.9422 24.5247C12.0466 24.6912 12.2652 25.1487 12.3027 25.2794L12.3256 25.3589L12.1285 25.3358C12.0201 25.3231 11.6039 25.2523 11.2035 25.1786C9.99737 24.9564 9.30642 24.9631 8.63274 25.2035C8.07256 25.4035 7.62431 25.7045 7.22472 26.1491C6.40204 27.0644 6 28.3444 6 30.0484C6 30.9584 6.08323 31.6921 6.28279 32.5419C6.87732 35.0733 8.16402 37.03 9.70752 37.7501C10.1298 37.9471 10.311 37.9892 10.7235 37.9867C11.1729 37.9839 11.3544 37.9262 12.0005 37.5802C12.5464 37.2879 12.702 37.234 13 37.234C13.3002 37.234 13.4528 37.2875 14.0224 37.5925C14.2695 37.7248 14.5663 37.8644 14.6818 37.9027C15.2399 38.0875 15.8049 38.0105 16.4716 37.6588C17.9303 36.8891 19.1466 34.9714 19.7172 32.5419C19.9168 31.6921 20 30.9584 20 30.0484C20 28.9523 19.843 28.081 19.502 27.2848C18.9085 25.899 17.6678 25.0172 16.3114 25.0172C16.1255 25.0172 15.9735 25.0102 15.9735 25.0016C15.9735 24.9931 16.0376 24.8796 16.1161 24.7496C16.5309 24.0617 16.7552 23.281 16.9649 21.7947C17.0178 21.4201 17.0681 21.0875 17.0768 21.0555C17.0856 21.0236 17.0813 20.9986 17.0673 21.0001C17.0534 21.0015 16.7145 21.1031 16.3142 21.2259ZM15.8185 22.5505C15.8185 22.5642 15.7762 22.7446 15.7245 22.9513C15.3981 24.2577 14.7776 25.029 13.8482 25.2839C13.717 25.32 13.5768 25.3494 13.5368 25.3494C13.4668 25.3494 13.4647 25.3421 13.4818 25.1584C13.5916 23.9736 14.1577 23.2508 15.4159 22.6886C15.7937 22.5199 15.8186 22.5113 15.8185 22.5505ZM11.2362 26.292C12.7067 26.5551 13.291 26.5552 14.7638 26.2925C16.2741 26.0232 16.8026 26.0535 17.4757 26.4479C18.224 26.8864 18.6956 27.6964 18.9054 28.9037C18.9717 29.285 18.9951 30.3587 18.9487 30.888C18.7953 32.638 18.1595 34.3957 17.2465 35.5942C16.7218 36.2829 15.9517 36.8287 15.408 36.8972C15.1519 36.9295 14.9501 36.8652 14.4093 36.5787C13.8241 36.2688 13.6298 36.1953 13.2689 36.1472C12.9545 36.1053 12.5693 36.145 12.2742 36.2498C12.1708 36.2864 11.8633 36.4347 11.5907 36.5792C11.0511 36.8652 10.8489 36.9296 10.592 36.8972C10.0483 36.8287 9.2782 36.2829 8.75354 35.5942C7.84047 34.3957 7.20471 32.638 7.0513 30.888C7.0049 30.3587 7.02835 29.285 7.09463 28.9037C7.26012 27.9514 7.6385 27.1528 8.12168 26.7358C8.44399 26.4577 8.74155 26.2996 9.17478 26.1763C9.549 26.0698 10.1975 26.1062 11.2362 26.292ZM9.15365 26.8965C8.64275 27.2662 8.11806 28.0352 7.81508 28.8584C7.70862 29.1477 7.58113 29.6249 7.58011 29.738C7.57974 29.7801 7.66104 29.8061 7.97456 29.8639C8.19177 29.9039 8.41385 29.945 8.46812 29.9552C8.56302 29.9731 8.56801 29.9683 8.59982 29.8293C8.80799 28.9197 9.27083 28.1185 9.8067 27.7403L9.87884 27.6894L9.65824 27.217C9.53692 26.9573 9.42031 26.7452 9.39912 26.7458C9.37793 26.7463 9.26748 26.8142 9.15365 26.8965Z" fill="#30a757"></path>
    <path d="M25.5 2.5C25.5 2.61206 25.4264 2.81076 25.0742 3.07097C24.7318 3.32394 24.2044 3.57282 23.5077 3.79053C22.1203 4.22409 20.173 4.5 18 4.5C15.827 4.5 13.8797 4.22409 12.4923 3.79053C11.7956 3.57282 11.2682 3.32394 10.9258 3.07097C10.5736 2.81076 10.5 2.61206 10.5 2.5C10.5 2.38794 10.5736 2.18924 10.9258 1.92903C11.2682 1.67606 11.7956 1.42718 12.4923 1.20947C13.8797 0.775912 15.827 0.5 18 0.5C20.173 0.5 22.1203 0.775912 23.5077 1.20947C24.2044 1.42718 24.7318 1.67606 25.0742 1.92903C25.4264 2.18924 25.5 2.38794 25.5 2.5Z" fill="white" stroke="#30a757"></path>
    <line x1="12.5" y1="4" x2="12.5" y2="9" stroke="#30a757"></line>
    <line x1="23.5" y1="4" x2="23.5" y2="9" stroke="#30a757"></line>
    <path fill-rule="evenodd" clip-rule="evenodd" d="M26.7236 25.0465C26.0599 25.1358 25.5908 25.2732 25.029 25.5428C24.6909 25.705 24.4608 25.8443 24.0641 26.1268L23.7335 26.3622L23.9437 26.61C24.5642 27.3415 25.246 28.6075 25.4809 29.4648C25.5439 29.6946 25.618 30.0876 25.618 30.1917C25.618 30.2331 25.5505 30.3651 25.3804 30.6562C24.8283 31.6007 24.6768 31.9805 24.3395 33.265C23.8017 35.3129 22.9228 36.9419 21.4789 38.5666C21.114 38.9772 20.4323 39.6426 19.9808 40.0289C18.6013 41.2092 17.4379 42.0069 15.4861 43.1106C15.212 43.2657 14.7022 43.5539 14.3533 43.7512C12.0464 45.0556 10.4946 46.1202 8.60769 47.6929C8.18973 48.0412 8.0582 48.1752 7.92864 48.3848C7.77711 48.6299 7.52102 49.1523 7.35959 49.5455C7.23657 49.8452 7.02358 50.4076 7.00004 50.495C6.99703 50.5061 7.16675 50.7916 7.3772 51.1293C7.58765 51.4671 7.77525 51.7699 7.79408 51.8022C7.82317 51.8521 7.90464 51.8985 8.33582 52.1109C9.03519 52.4553 9.35136 52.5748 9.76769 52.652C10.1122 52.7158 10.9457 52.6924 11.843 52.5936C15.9007 52.1467 20.2575 50.4187 23.9108 47.8071C25.9039 46.3824 27.5496 44.8661 28.8256 43.2791C30.6657 40.9904 31.7578 38.5049 32.0272 35.9928C32.0652 35.639 32.0804 34.7685 32.0541 34.4522C31.9189 32.8247 31.2714 31.5024 30.0858 30.4326C29.8345 30.2058 29.5596 29.9963 29.1649 29.7306C28.8299 29.5052 28.691 29.3704 28.4661 29.0521C27.8276 28.1486 27.3365 26.7223 27.1661 25.2764L27.1335 25L27.0872 25.0019C27.0617 25.003 26.8981 25.023 26.7236 25.0465ZM26.2687 26.6895C26.3897 27.3408 26.6586 28.1292 26.9874 28.7972C27.272 29.3752 27.5608 29.7988 27.9353 30.1872C28.163 30.4235 28.2962 30.5331 28.6902 30.8083C30.0291 31.7435 30.677 32.7579 30.8785 34.2347C30.9232 34.5618 30.9318 35.3546 30.8951 35.7481C30.7645 37.1462 30.3599 38.5075 29.6692 39.8716C28.7488 41.6896 27.3626 43.423 25.545 45.0291C21.8996 48.25 17.55 50.4224 13.1208 51.2343C11.8874 51.4604 10.3322 51.5954 9.98831 51.5063C9.84855 51.4701 9.41413 51.3143 9.41462 51.3006C9.41502 51.2891 9.85101 51.0303 10.4655 50.6768C11.6182 50.0136 12.9531 49.3352 14.163 48.7977C14.3474 48.7157 14.9306 48.4632 15.4589 48.2364C16.6783 47.7131 16.9825 47.5758 17.5524 47.2912C18.9213 46.6077 20.0191 45.8953 21.3496 44.8272C22.5744 43.8438 23.4305 43.0393 24.2203 42.1291C26.1202 39.94 27.3663 37.4284 27.9109 34.6904C28.0818 33.8316 28.1757 33.0001 28.2035 32.1005L28.2156 31.7063H27.6438C27.139 31.7063 27.0706 31.7096 27.0609 31.7349C27.0548 31.7507 27.0497 31.8914 27.0494 32.0476C27.0491 32.2038 27.0374 32.4906 27.0234 32.685C26.7935 35.8693 25.5748 38.7901 23.434 41.2877C23.149 41.6201 22.8467 41.941 22.4438 42.3387C21.9755 42.8009 21.7078 43.0417 21.0233 43.6162C19.9702 44.5002 18.8422 45.2902 17.8243 45.8568C17.149 46.2326 16.5245 46.5249 15.0002 47.1787C13.3967 47.8664 12.7956 48.1432 11.6889 48.7031C10.8431 49.1311 9.94508 49.6312 8.9732 50.2154C8.67579 50.3942 8.42262 50.5442 8.41062 50.5488C8.3986 50.5534 8.36192 50.5191 8.32911 50.4725L8.26944 50.3879L8.31927 50.25C8.46895 49.8359 8.78477 49.1724 8.9313 48.9643C8.97717 48.8991 9.09823 48.7804 9.24207 48.6596C10.5386 47.5708 11.7796 46.6545 13.0483 45.8492C13.7771 45.3866 14.3315 45.0632 16.0571 44.0942C18.0074 42.999 19.2008 42.1966 20.5158 41.0964C21.5352 40.2436 22.3761 39.366 23.107 38.3923C24.1346 37.0233 24.8679 35.5637 25.3368 33.9538C25.3906 33.7693 25.4794 33.4472 25.5343 33.2378C25.7378 32.4614 25.8515 32.186 26.2789 31.4344C26.6039 30.8629 26.6615 30.752 26.7168 30.5916C26.7608 30.4637 26.7666 30.4208 26.7657 30.2291C26.7639 29.8659 26.6868 29.3969 26.5507 28.9212C26.3467 28.2085 25.9501 27.4167 25.4699 26.7634C25.4317 26.7115 25.4005 26.6624 25.4005 26.6544C25.4005 26.6309 25.6015 26.5574 25.9156 26.4662C26.0759 26.4196 26.2083 26.3827 26.2097 26.384C26.2112 26.3854 26.2377 26.5229 26.2687 26.6895Z" fill="#30a757"></path>
  </symbol>
  <symbol fill="none" xmlns="http://www.w3.org/2000/svg" viewBox="0 0 53 56" id="ready-made-food">
    <path d="M49.8548 29.8438C49.8548 44.0576 39.3562 55.5 26.5 55.5C13.6438 55.5 3.14514 44.0576 3.14514 29.8438C3.14514 15.6299 13.6438 4.1875 26.5 4.1875C39.3562 4.1875 49.8548 15.6299 49.8548 29.8438Z" fill="white" stroke="#30a757"></path>
    <path d="M49.8548 31.5312C49.8548 32.3507 49.3326 33.2197 48.1795 34.0876C47.0349 34.949 45.3469 35.7461 43.2162 36.4244C38.9606 37.7791 33.0504 38.625 26.5 38.625C19.9496 38.625 14.0394 37.7791 9.78373 36.4244C7.65302 35.7461 5.96505 34.949 4.82044 34.0876C3.66735 33.2197 3.14514 32.3507 3.14514 31.5312C3.14514 30.7118 3.66735 29.8428 4.82044 28.9749C5.96505 28.1135 7.65302 27.3164 9.78373 26.6381C14.0394 25.2834 19.9496 24.4375 26.5 24.4375C33.0504 24.4375 38.9606 25.2834 43.2162 26.6381C45.3469 27.3164 47.0349 28.1135 48.1795 28.9749C49.3326 29.8428 49.8548 30.7118 49.8548 31.5312Z" fill="white" stroke="#30a757"></path>
    <path d="M19.0968 47.5625C26.7429 49.9159 30.6503 49.7067 37.1936 47.5625" stroke="#30a757"></path>
    <path d="M3.10119 29C3.10119 28.55 3.10119 27.2001 3.10119 27.6501C3.10119 28.0095 3.08212 28.3761 3.10119 28.7349C3.11469 28.989 3.52377 29.148 3.52377 28.7791C3.52377 28.4274 3.6928 28.2532 3.6928 27.9397C3.6928 27.4861 3.86364 27.0418 3.94635 26.6094C4.16067 25.4892 4.73741 24.2723 5.2141 23.2568C5.57015 22.4982 5.87217 21.7226 6.30812 21.0085C6.88987 20.0557 7.24434 18.8672 7.95149 18.0142C9.10235 16.6259 5.87669 20.9884 4.99811 22.5793C4.62295 23.2587 3.98764 24.0472 3.73506 24.7785C3.50472 25.4453 3.43925 26.0134 3.43925 26.7027C3.43925 27.0359 3.08571 27.4808 2.8899 27.7286C2.84784 27.7819 2.70375 28.1092 2.64574 28.1213C2.63438 28.1237 2.78845 27.0255 2.80069 26.9678C3.10707 25.5218 3.58691 24.1272 3.94635 22.6972C4.14579 21.9037 4.30441 21.1277 4.53797 20.341C4.88601 19.1685 5.45176 18.211 6.07335 17.1797C7.8185 14.2844 9.76187 11.6798 12.1726 9.36497C13.0812 8.49257 13.8833 7.48455 14.9476 6.8026C15.5433 6.42088 14.5309 7.66069 14.4499 7.76963C13.8523 8.57283 13.1666 9.2965 12.5482 10.0817C11.6619 11.2072 10.9404 12.4305 10.163 13.6356C9.66465 14.4081 9.07736 15.1113 8.52902 15.8445C8.2964 16.1556 7.9931 16.4154 7.80124 16.7576C7.09253 18.0215 6.24107 19.1784 5.55216 20.4588C5.34913 20.8361 4.96435 21.1529 4.79621 21.5338C4.75989 21.6161 4.60689 22.0997 4.63187 21.9952C4.71314 21.6554 4.94469 21.332 5.12489 21.0478C5.78837 20.0015 6.5831 19.074 7.38335 18.1418C9.01917 16.2364 10.5677 14.2254 12.2947 12.4084C13.2267 11.4278 14.2238 10.5708 15.2715 9.73313C16.3613 8.86194 17.2949 7.8042 18.3987 6.95477C19.2485 6.30074 20.0392 5.57604 20.8684 4.89801C21.9024 4.05248 23.3538 3.5199 24.5871 3.11122C26.3724 2.51964 28.2563 2.25904 30.123 2.1491C31.1719 2.08732 34.3149 1.91067 33.2735 2.05584C32.1934 2.2064 31.0964 2.57893 30.0431 2.86578C28.0713 3.40279 26.1135 3.98575 24.1364 4.50531C22.457 4.94662 20.6668 5.50863 19.1405 6.38045C18.379 6.81544 17.6773 7.34138 17.0511 7.97089C16.7713 8.25213 16.4993 8.61583 16.1543 8.81519C16.0871 8.85398 15.9964 8.83491 15.9477 8.89864C15.8792 8.98812 15.9985 7.61699 16.0322 7.46038C16.1705 6.81801 16.5069 6.54698 16.9994 6.20373C17.4764 5.8713 17.9719 5.52197 18.4785 5.24162C18.6717 5.1347 19.3138 5.05828 18.8776 5.36925C18.1332 5.89983 17.2287 6.12163 16.5111 6.71425C16.1151 7.04133 15.8805 7.39033 15.5908 7.79417C15.1062 8.46972 15.0047 8.95172 14.2198 9.34043C13.8071 9.54479 13.6694 9.82854 13.4779 10.2289C13.3215 10.556 13.5201 10.2287 13.6423 10.0817C14.5296 9.01341 15.7476 8.37979 16.9854 7.87762C18.7502 7.16165 20.5582 6.53726 22.3521 5.9043C23.24 5.59102 24.1811 5.14699 25.1036 4.97164C25.5432 4.88807 25.9322 4.65129 26.362 4.52494C26.9476 4.35275 27.5154 4.34823 28.118 4.34823C29.5157 4.34823 30.9133 4.34823 32.311 4.34823C33.1519 4.34823 34.2615 4.68819 34.9826 5.12381C35.1817 5.24403 35.428 5.333 35.6447 5.40852C35.9569 5.51733 35.0623 5.43792 34.9498 5.3987C33.6728 4.95368 32.267 4.87837 30.9259 4.87837C30.4057 4.87837 29.9613 4.75965 29.4562 4.66239C28.9246 4.56 28.3566 4.6133 27.8175 4.6133C27.3927 4.6133 26.147 4.82328 26.5686 4.87837C26.9346 4.92621 27.3369 4.94757 27.7048 4.96182C28.5395 4.99414 29.2534 5.1462 30.0619 5.31525C31.4949 5.61488 32.9196 5.89358 34.33 6.29209C35.1018 6.51016 35.7834 6.95186 36.5697 7.10695C37.2285 7.23691 37.9023 7.66575 38.4713 8.01016C38.8514 8.2402 39.2015 8.44302 39.5277 8.76611C39.6752 8.91214 39.9135 9.06881 39.6827 8.72193C39.3876 8.27848 38.8398 7.84626 38.429 7.52419C37.868 7.08427 37.4674 6.60283 36.8232 6.27246C36.4148 6.06298 36.1076 6.02702 35.6588 6.02702C35.2432 6.02702 35.2031 5.9356 35.5743 6.15465C36.2545 6.55613 36.9644 7.007 37.49 7.61746C37.9249 8.12274 38.1155 8.79514 38.5605 9.29134C39.0647 9.85358 41.0347 10.9144 40.3353 10.6707C39.5304 10.3902 38.7854 9.80505 38.044 9.38952C37.2741 8.95801 36.4534 8.61955 35.7151 8.12797C35.1146 7.72815 34.5741 7.26614 33.945 6.9106C32.7851 6.25512 31.7123 5.65544 30.4281 5.30052C29.107 4.93538 27.8654 4.79001 26.5028 4.79001C25.7094 4.79001 24.9387 4.84357 24.1599 5.01582C23.9244 5.06788 22.8877 5.28682 22.817 5.61959C22.7997 5.70104 25.4351 5.59562 25.4417 5.59505C27.3943 5.42669 29.297 5.32016 31.2545 5.32016C31.951 5.32016 32.6475 5.32016 33.344 5.32016C33.4251 5.32016 33.7085 5.3231 33.4707 5.2318C33.015 5.05677 32.4998 5.00533 32.0246 4.91764C30.2271 4.58602 28.4068 4.50005 26.5827 4.52985C24.5166 4.5636 22.4722 4.87837 20.4036 4.87837C17.9125 4.87837 15.444 4.52703 13.0272 5.33979C12.4342 5.5392 11.4159 6.03009 12.5435 6.34118C14.8767 6.98487 17.3708 7.17756 19.7603 7.48983C21.4196 7.70667 23.0512 8.1203 24.6998 8.41268C25.2602 8.51206 25.7971 8.82634 26.362 8.85446C27.6203 8.91711 28.8622 9.03118 30.1323 9.03118C30.7103 9.03118 31.2808 9.20789 31.8743 9.20789C32.4957 9.20789 33.117 9.20789 33.7384 9.20789C34.9639 9.20789 36.1893 9.20789 37.4148 9.20789" stroke="white" stroke-linecap="round"></path>
    <path d="M40.4839 8.75C40.9487 9.55353 41.6298 10.1545 42.0811 10.9447C42.4236 11.5446 42.9023 11.9392 43.347 12.4402C43.9042 13.0679 44.3979 13.8115 44.8943 14.499C45.3266 15.0976 45.689 15.7304 46.0378 16.3927C46.3776 17.038 46.6721 17.7115 46.9816 18.3738C47.1402 18.7133 47.5341 19.3512 47.1994 18.5631C46.566 17.0719 45.4883 15.8222 44.5858 14.5184C44.1212 13.8473 43.7594 13.0469 43.1837 12.4694C42.6426 11.9265 42.2046 11.3023 41.6455 10.8476C41.3264 10.5881 41.3006 10.6104 41.3006 11.0613C41.3006 11.7611 42.1644 12.3934 42.5893 12.8384C42.9611 13.2278 43.2255 13.6836 43.5875 14.0814C44.193 14.7469 44.8064 15.5048 45.2165 16.3247C45.943 17.7773 46.5927 19.1878 47.6168 20.4228C48.1621 21.0805 48.7461 21.7216 49.1732 22.4767C49.5355 23.1173 49.8541 23.8365 50.1578 24.5161C50.3393 24.9221 50.1289 24.4596 50.0761 24.317C49.8087 23.5948 49.6844 22.8225 49.4318 22.0931C49.1439 21.2618 48.6635 20.4084 48.6514 19.5002C48.6468 19.1611 48.6809 18.719 48.5243 18.4077C48.2113 17.7857 48.243 18.7982 48.243 19.0147C48.243 19.2133 48.2191 19.4338 48.2475 19.6313C48.2527 19.6675 48.3893 20.0404 48.2884 20.0344C47.7601 20.003 47.7165 18.5314 47.6667 18.1941C47.6332 17.9666 47.5373 17.4508 47.3627 17.6843C47.2117 17.8863 47.4206 18.4528 47.4262 18.6748C47.4389 19.1766 47.5251 19.7511 47.635 20.2383C47.756 20.7751 47.9147 21.3182 48.125 21.8212C48.3083 22.2596 48.3276 22.7403 48.5288 23.1711C49.2533 24.7215 50.1482 25.9946 50.793 27.5605C50.9513 27.9448 51.1762 28.2904 51.3285 28.6773C51.5191 29.1618 51.0315 28.0344 50.9745 27.9295C50.457 26.977 49.8404 26.0874 49.3229 25.1813C49.2526 25.0581 48.3735 24.3223 48.3292 24.5355C48.1975 25.1696 48.8757 25.737 49.0597 26.2786C49.12 26.4561 49.2569 26.6273 49.3456 26.7982C49.4414 26.9827 49.5924 27.388 49.7313 27.5217C50.025 27.8046 50.2353 28.2961 50.5299 28.6287C50.8396 28.9785 50.9406 29.4815 51.2241 29.8523C51.3725 30.0464 51.6733 30.2616 51.6733 30.5418C51.6733 30.826 51.3548 30.0869 51.1923 29.8621C51.0738 29.698 50.9362 29.5245 50.8566 29.3328C50.5851 28.6791 49.7602 28.4015 49.3501 27.8373C49.256 27.7078 48.733 26.8858 48.733 27.3663C48.733 27.4561 48.6851 27.8573 48.7784 27.8858C48.9632 27.9423 48.9441 28.2171 49.0597 28.2403C49.2823 28.285 49.5282 28.7319 49.6768 28.8909C49.8743 29.1023 50.1722 29.3678 50.4074 29.5076C50.5441 29.5889 50.6679 29.5997 50.8112 29.6436C50.9342 29.6812 51.063 29.9012 51.1833 29.9689C51.4907 30.142 51.7549 30.5563 52 30.6875" stroke="white" stroke-linecap="round"></path>
    <path d="M4.29032 27.3125C3.77521 27.6534 3.55811 28.0644 3.25738 28.5329C3.15394 28.6941 2.94067 28.8196 2.83956 28.9849C2.76188 29.1119 2.7143 29.1787 2.59584 29.2813C2.52454 29.3429 2.41014 29.4628 2.41014 29.5499C2.41014 29.6747 2.00707 29.9473 1.91398 30.0924C1.80344 30.2646 1.71617 30.4547 1.60061 30.6348C1.54313 30.7243 1.58619 30.833 1.53388 30.9286C1.43356 31.1119 1.31882 31.3035 1.23792 31.4936C1.14062 31.7222 1.27741 32.255 1 32.375" stroke="white" stroke-linecap="round"></path>
    <path d="M49.2026 27.3125C49.151 27.3204 48.7292 27.3555 48.7114 27.4236C48.6964 27.481 48.7866 27.5236 48.8141 27.5678C48.8555 27.6344 48.9686 27.8354 49.0305 27.8655C49.1714 27.9341 49.1272 28.1297 49.2526 28.1964C49.354 28.2504 49.5764 28.3522 49.605 28.4375C49.6263 28.5008 49.7871 28.5899 49.8409 28.6408C49.9446 28.7389 49.9896 28.8394 50.1268 28.8913C50.1815 28.912 50.3054 29.128 50.3404 29.1843C50.3901 29.2642 50.3997 29.3908 50.4792 29.4585C50.7034 29.6494 50.7002 29.8512 50.8122 30.0777C50.9194 30.2945 51.071 30.4901 51.1897 30.6922C51.352 30.9687 51.5564 31.2029 51.7114 31.4816C51.7997 31.6404 51.8138 31.8273 51.8752 31.9945C51.9154 32.1043 52 32.267 52 32.375" stroke="white" stroke-linecap="round"></path>
    <path d="M21.5645 5.375C21.5645 5.375 19.7137 11.2813 21.5645 11.2812C23.4153 11.2812 21.5645 17.1875 21.5645 17.1875" stroke="#30a757"></path>
    <path d="M26.5 5.375C26.5 5.375 24.6492 11.2813 26.5 11.2812C28.3508 11.2812 26.5 17.1875 26.5 17.1875" stroke="#30a757"></path>
    <path d="M31.4355 5.375C31.4355 5.375 29.5847 11.2813 31.4355 11.2812C33.2863 11.2812 31.4355 17.1875 31.4355 17.1875" stroke="#30a757"></path>
    <path d="M30.1129 26.4688C30.1129 29.4666 27.7469 31.875 24.8549 31.875C21.9628 31.875 19.5968 29.4666 19.5968 26.4688C19.5968 23.4709 21.9628 21.0625 24.8549 21.0625C27.7469 21.0625 30.1129 23.4709 30.1129 26.4688Z" fill="white" stroke="#30a757"></path>
    <path d="M33.4032 33.2188C33.4032 36.2166 31.0372 38.625 28.1451 38.625C25.2531 38.625 22.8871 36.2166 22.8871 33.2188C22.8871 30.2209 25.2531 27.8125 28.1451 27.8125C31.0372 27.8125 33.4032 30.2209 33.4032 33.2188Z" fill="white" stroke="#30a757"></path>
    <path d="M41.629 31.5312C41.629 34.5291 39.263 36.9375 36.371 36.9375C33.4789 36.9375 31.1129 34.5291 31.1129 31.5312C31.1129 28.5334 33.4789 26.125 36.371 26.125C39.263 26.125 41.629 28.5334 41.629 31.5312Z" fill="white" stroke="#30a757"></path>
    <path d="M36.6936 28.1562C36.6936 31.1541 34.3275 33.5625 31.4355 33.5625C28.5434 33.5625 26.1774 31.1541 26.1774 28.1562C26.1774 25.1584 28.5434 22.75 31.4355 22.75C34.3275 22.75 36.6936 25.1584 36.6936 28.1562Z" fill="white" stroke="#30a757"></path>
    <path d="M23.5322 31.5312C23.5322 34.5291 21.1662 36.9375 18.2742 36.9375C15.3821 36.9375 13.0161 34.5291 13.0161 31.5312C13.0161 28.5334 15.3821 26.125 18.2742 26.125C21.1662 26.125 23.5322 28.5334 23.5322 31.5312Z" fill="white" stroke="#30a757"></path>
    <path d="M47.7077 17.4078C46.3395 15.1487 44.9952 12.9026 43.4675 10.7637C43.2093 10.4022 42.8436 10.1691 42.5684 9.83277C42.2319 9.4214 41.8231 9.25723 41.4462 8.91459C41.1441 8.63996 40.4079 8.59194 40.0179 8.57027C39.6934 8.55224 39.3174 8.04246 39.036 7.88163C38.2319 7.42215 37.4859 6.83254 36.6895 6.36408C36.4803 6.24102 36.5692 5.98665 36.2878 5.92411C36.1366 5.89052 35.9959 5.66048 35.8287 5.58617C35.0019 5.21869 34.8522 4.25402 34.2219 3.74981C33.7668 3.38576 33.1229 2.28389 32.4174 2.25776C31.3239 2.21726 30.6008 2.40047 29.6374 2.80612C28.7901 3.16287 27.4619 3.17594 26.5257 3.17594C25.7053 3.17594 24.8849 3.17594 24.0645 3.17594C22.2424 3.17594 20.3712 2.62268 18.9507 4.04311C18.5691 4.42476 17.8942 4.70502 17.7265 5.24185C17.6381 5.52458 17.3736 5.41857 17.2929 5.70095C17.2389 5.88979 17.0504 6.20198 16.8912 6.32582C16.7012 6.47357 16.3962 6.52679 16.1707 6.68289C15.9879 6.80945 15.7631 6.94614 15.5713 7.05271C14.9033 7.42381 14.5081 8.11806 13.8943 8.57027C12.4819 9.61099 10.8232 10.7162 9.74339 12.1282C9.30023 12.7077 8.92061 13.3685 8.5064 13.971C8.31687 14.2466 8.08344 14.5479 7.85602 14.7935C7.62931 15.0384 7.64614 15.3214 7.42243 15.5714C7.04007 15.9988 6.98597 16.8475 6.67003 17.344C6.41531 17.7443 5.98177 18.0914 5.84111 18.5555C5.77645 18.7689 5.63171 18.9836 5.5223 19.1868C5.35022 19.5063 5.37369 19.8487 5.19074 20.1623C4.93571 20.5995 4.93784 21.1888 4.78265 21.6544" stroke="white" stroke-width="3" stroke-linecap="round"></path>
  </symbol>
  <symbol fill="none" xmlns="http://www.w3.org/2000/svg" viewBox="0 0 39 36" id="reviews">
    <path d="M21.9474 5.52732L21.1052 4.83958L16.2105 10.0358C16.0263 10.2396 15.8684 10.6217 15.8684 10.8764V18.9509C15.8684 19.6386 16.421 20.1735 17.1316 20.1735H24.7895C25.2105 20.1735 25.6842 19.8679 25.8421 19.5113L28.3158 13.9839V11.6151C28.3158 10.9273 27.7368 10.3924 27.0526 10.3924H21.6053L22.4737 6.72449C22.5 6.31694 22.2631 5.78204 21.9474 5.52732Z" fill="#313131"></path>
    <path d="M14.5264 10.8H11.158V20.199H14.5264V10.8Z" fill="#313131"></path>
    <path d="M10.8158 35.1L8.97368 26.6179H3.07895C1.36842 26.6434 0 25.2934 0 23.6632V2.98019C0 1.32453 1.36842 0 3.07895 0H35.9211C37.6053 0 39 1.32453 39 2.98019V23.6632C39 25.2934 37.6316 26.6434 35.9211 26.6434H20.1579L10.8158 35.1ZM3.07895 1.91038C2.47368 1.91038 1.97368 2.39434 1.97368 2.98019V23.6632C1.97368 24.2491 2.47368 24.733 3.07895 24.733H10.5789L12.0263 31.4066L19.3947 24.733H35.9474C36.5526 24.733 37.0526 24.2491 37.0526 23.6632V2.98019C37.0526 2.39434 36.5526 1.91038 35.9474 1.91038H3.07895Z" fill="#313131"></path>
  </symbol>
</svg>