<svg width="26" height="65" viewBox="0 0 26 65" fill="none" xmlns="http://www.w3.org/2000/svg">
<rect x="0.5" y="16.7285" width="23.3655" height="47.7311" fill="white" stroke="black"/>
<path d="M4.60583 22.0799H5.29626V22.596H4.60583V23.7513H3.97009V22.596H1.70398V22.2235L3.9325 18.7747H4.60583V22.0799ZM2.42175 22.0799H3.97009V19.6395L3.8949 19.7762L2.42175 22.0799ZM7.74353 21.0819H9.13123V21.68H7.74353V23.2523H7.10779V21.68H5.72009V21.0819H7.10779V19.6292H7.74353V21.0819Z" fill="black"/>
<path d="M17.5127 16.2285V1.00001" stroke="black"/>
<line x1="17.1582" y1="0.709381" x2="24.7724" y2="11.3693" stroke="black"/>
<line x1="6.0914" y1="59.891" x2="18.2742" y2="59.891" stroke="black"/>
<path d="M22.1867 28.0969C22.79 27.8614 23.4578 27.6429 24.0789 27.919C24.2524 27.9961 25.1066 28.3361 24.4508 28.6467C24.043 28.8399 23.5131 28.8246 23.06 28.8246C22.6592 28.8246 22.3917 29.3524 22.8417 29.5524C23.0738 29.6556 23.8156 29.7691 23.9333 29.9163C24.164 30.2046 24.8657 29.7718 25.0977 30.0618C25.217 30.2109 24.4924 30.1346 24.2891 30.1346C23.7824 30.1346 23.2756 30.1346 22.7689 30.1346" stroke="white" stroke-linecap="round"/>
<path d="M9.23248 58.3719C9.23248 58.5923 9.15222 60.5055 9.20013 60.4097C9.33374 60.1424 9.29408 59.798 9.41037 59.5363C9.49928 59.3363 9.81469 59.0188 9.81469 59.0188C9.81469 59.0188 9.81469 59.6549 9.81469 59.973C9.81469 60.3824 9.81469 60.3824 9.81469 59.973C9.81469 59.6159 9.9756 58.5252 9.66913 58.3719" stroke="white" stroke-linecap="round"/>
<path fill-rule="evenodd" clip-rule="evenodd" d="M16.5427 30.2407C15.4304 30.5945 14.8908 30.8073 14.3411 31.1088C13.2402 31.7128 12.4403 32.5302 11.9996 33.5016L11.8708 33.7855L11.7268 33.5833C11.4813 33.2383 10.932 32.6573 10.6196 32.412C10.2531 32.1242 9.937 31.9406 9.89404 31.9905C9.86275 32.0268 9.40908 33.2633 9.40924 33.3117C9.40932 33.325 9.51418 33.3967 9.6423 33.471C9.90211 33.6218 10.6126 34.3739 10.8216 34.7195C10.9583 34.9455 11.2443 35.5665 11.2934 35.744L11.3233 35.8519L11.0654 35.8206C10.9235 35.8033 10.3789 35.7073 9.85501 35.6072C8.27662 35.3055 7.37244 35.3145 6.49088 35.641C5.75782 35.9125 5.17125 36.3212 4.64835 36.9248C3.57179 38.1675 3.04568 39.9053 3.04568 42.2187C3.04568 43.4542 3.15459 44.4503 3.41574 45.604C4.19374 49.0408 5.87751 51.6973 7.89733 52.6749C8.44994 52.9423 8.68701 52.9996 9.22677 52.9961C9.81496 52.9924 10.0525 52.914 10.8979 52.4443C11.6123 52.0474 11.8159 51.9742 12.2058 51.9742C12.5987 51.9742 12.7983 52.0469 13.5437 52.4609C13.8672 52.6406 14.2555 52.8301 14.4067 52.8821C15.137 53.1331 15.8764 53.0285 16.7488 52.5509C18.6576 51.5059 20.2493 48.9025 20.996 45.604C21.2571 44.4503 21.366 43.4542 21.366 42.2187C21.366 40.7305 21.1606 39.5476 20.7144 38.4667C19.9377 36.5853 18.3141 35.3881 16.5392 35.3881C16.2959 35.3881 16.0969 35.3785 16.0969 35.3669C16.0969 35.3553 16.1809 35.2013 16.2835 35.0247C16.8264 34.0908 17.1199 33.0308 17.3943 31.013C17.4635 30.5045 17.5294 30.0529 17.5408 30.0095C17.5522 29.9661 17.5466 29.9322 17.5283 29.9342C17.5101 29.9361 17.0666 30.0741 16.5427 30.2407ZM15.8941 32.0391C15.8941 32.0578 15.8388 32.3026 15.7712 32.5833C15.3439 34.3569 14.532 35.4041 13.3158 35.7502C13.1441 35.7991 12.9607 35.8391 12.9083 35.8391C12.8167 35.8391 12.814 35.8292 12.8363 35.5798C12.98 33.9712 13.7208 32.9899 15.3673 32.2267C15.8617 31.9976 15.8943 31.986 15.8941 32.0391ZM9.89777 37.1188C11.822 37.4759 12.5866 37.4761 14.5139 37.1194C16.4903 36.7538 17.1819 36.7949 18.0627 37.3304C19.0419 37.9258 19.659 39.0255 19.9336 40.6646C20.0203 41.1823 20.051 42.64 19.9903 43.3586C19.7895 45.7345 18.9576 48.1208 17.7627 49.748C17.0762 50.6829 16.0684 51.424 15.3569 51.517C15.0218 51.5609 14.7578 51.4735 14.05 51.0846C13.2842 50.6638 13.03 50.564 12.5577 50.4987C12.1463 50.4418 11.6422 50.4957 11.2561 50.638C11.1208 50.6878 10.7183 50.8891 10.3617 51.0852C9.65555 51.4736 9.39096 51.561 9.05475 51.517C8.3433 51.424 7.33552 50.6829 6.64895 49.748C5.45412 48.1208 4.62216 45.7345 4.42141 43.3586C4.36069 42.64 4.39138 41.1823 4.47812 40.6646C4.69468 39.3717 5.18981 38.2874 5.82211 37.7213C6.24388 37.3437 6.63327 37.1291 7.20018 36.9617C7.68989 36.8172 8.53854 36.8665 9.89777 37.1188ZM7.17254 37.9396C6.50397 38.4414 5.81736 39.4854 5.42088 40.6031C5.28157 40.9959 5.11475 41.6438 5.11341 41.7972C5.11292 41.8545 5.21932 41.8897 5.62958 41.9681C5.91383 42.0225 6.20444 42.0783 6.27545 42.0921C6.39964 42.1164 6.40617 42.11 6.44779 41.9212C6.72021 40.6863 7.32587 39.5986 8.02711 39.085L8.12151 39.016L7.83284 38.3747C7.67408 38.022 7.52148 37.7341 7.49375 37.7348C7.46603 37.7356 7.32149 37.8277 7.17254 37.9396Z" fill="black"/>
</svg>
