<svg width="39" height="36" viewBox="0 0 39 36" fill="none" xmlns="http://www.w3.org/2000/svg">
<path d="M21.9474 5.52732L21.1052 4.83958L16.2105 10.0358C16.0263 10.2396 15.8684 10.6217 15.8684 10.8764V18.9509C15.8684 19.6386 16.421 20.1735 17.1316 20.1735H24.7895C25.2105 20.1735 25.6842 19.8679 25.8421 19.5113L28.3158 13.9839V11.6151C28.3158 10.9273 27.7368 10.3924 27.0526 10.3924H21.6053L22.4737 6.72449C22.5 6.31694 22.2631 5.78204 21.9474 5.52732Z" fill="#313131"/>
<path d="M14.5264 10.8H11.158V20.199H14.5264V10.8Z" fill="#313131"/>
<path d="M10.8158 35.1L8.97368 26.6179H3.07895C1.36842 26.6434 0 25.2934 0 23.6632V2.98019C0 1.32453 1.36842 0 3.07895 0H35.9211C37.6053 0 39 1.32453 39 2.98019V23.6632C39 25.2934 37.6316 26.6434 35.9211 26.6434H20.1579L10.8158 35.1ZM3.07895 1.91038C2.47368 1.91038 1.97368 2.39434 1.97368 2.98019V23.6632C1.97368 24.2491 2.47368 24.733 3.07895 24.733H10.5789L12.0263 31.4066L19.3947 24.733H35.9474C36.5526 24.733 37.0526 24.2491 37.0526 23.6632V2.98019C37.0526 2.39434 36.5526 1.91038 35.9474 1.91038H3.07895Z" fill="#313131"/>
</svg>
