<svg width="0" height="0" class="hidden">
  <symbol version="1.1" id="video-clip" xmlns="http://www.w3.org/2000/svg" xmlns:xlink="http://www.w3.org/1999/xlink" x="0px" y="0px" enable-background="new 0 0 64 64" xml:space="preserve" viewBox="0 0 64 64">
    <g id="Videoclip">
      <path fill="#30a757" d="M64.0163498,25.9999504c0-0.0300007-0.0146027-0.0550995-0.0171013-0.0844002V8.9140501
		c0-3.8169003-3.0643997-6.9219003-6.8309975-6.9219003H6.8147507c-3.7665999,0-6.8311,3.105-6.8311,6.9219003v46.1718979
		c0,3.8169022,3.0644999,6.9219017,6.8311,6.9219017H57.168251c3.7665977,0,6.8309975-3.1049995,6.8309975-6.9219017V26.0844498
		C64.0017471,26.0551491,64.0163498,26.0300503,64.0163498,25.9999504z M11.9836502,35.9750519H1.9992508v-8.950201h9.9843998
		V35.9750519z M11.9836502,24.97505H1.9992508v-8.9501991h9.9843998V24.97505z M1.9992508,38.0248489h9.9843998v8.9502029H1.9992508
		V38.0248489z M13.9992504,48.0844498c0.0024996-0.0293007,0.0171003-0.0544014,0.0171003-0.0844994
		c0-0.0299988-0.0146008-0.0550995-0.0171003-0.0844002V37.0844498c0.0024996-0.0293007,0.0171003-0.0544014,0.0171003-0.0844994
		c0-0.0299988-0.0146008-0.0550995-0.0171003-0.0844002V26.0844498c0.0024996-0.0293007,0.0171003-0.0543995,0.0171003-0.0844994
		c0-0.0300007-0.0146008-0.0550995-0.0171003-0.0844002V15.0844498c0.0024996-0.0292997,0.0171003-0.0543995,0.0171003-0.0844994
		c0-0.0300007-0.0146008-0.0551004-0.0171003-0.0844002V4.0078502h35.9843979v10.9076996
		c-0.0023994,0.0292997-0.0171013,0.0543995-0.0171013,0.0844002c0,0.0300999,0.0147018,0.0551996,0.0171013,0.0844994v10.8311005
		c-0.0023994,0.0293007-0.0171013,0.0543995-0.0171013,0.0844002c0,0.0300999,0.0147018,0.0551987,0.0171013,0.0844994v10.8311005
		c-0.0023994,0.0293007-0.0171013,0.0544014-0.0171013,0.0844002c0,0.030098,0.0147018,0.0551987,0.0171013,0.0844994v10.8311005
		c-0.0023994,0.0293007-0.0171013,0.0544014-0.0171013,0.0844002c0,0.030098,0.0147018,0.0551987,0.0171013,0.0844994v11.9076996
		H13.9992504V48.0844498z M51.9992485,27.0248508h9.9844017v8.950201h-9.9844017V27.0248508z M51.9992485,24.97505v-8.9501991
		h9.9844017V24.97505H51.9992485z M51.9992485,38.0248489h9.9844017v8.9502029h-9.9844017V38.0248489z M61.9836502,8.9140501
		V13.97505h-9.9844017V4.0078502h5.1690025C59.8235512,4.0078502,61.9836502,6.2084498,61.9836502,8.9140501z M6.8147507,4.0078502
		h5.1688995V13.97505H1.9992508V8.9140501C1.9992508,6.2084498,4.1594648,4.0078502,6.8147507,4.0078502z M1.9992508,55.0859489
		v-6.0611h9.9843998v10.9673004H6.8147507C4.1594648,59.9921494,1.9992508,57.7914505,1.9992508,55.0859489z M57.168251,59.9921494
		h-5.1690025V49.0248489h9.9844017v6.0611C61.9836502,57.7914505,59.8235512,59.9921494,57.168251,59.9921494z"></path>
      <path fill="#30a757" d="M42.4289513,31.1249504l-16.0000019-8c-0.3031998-0.1508007-0.6625996-0.1347008-0.9515991,0.0429993
		c-0.2886009,0.1781998-0.4638863,0.4932003-0.4638863,0.8320007v16c0,0.3388977,0.1752853,0.653801,0.4638863,0.8320999
		c0.1571999,0.0970993,0.3353996,0.1459999,0.5141144,0.1459999c0.1493855,0,0.2992859-0.0341988,0.4374847-0.1030998l16.0000019-8
		c0.3310966-0.1660004,0.5405998-0.5044022,0.5405998-0.875C42.9695511,31.6293507,42.7600479,31.29105,42.4289513,31.1249504z
		 M26.9695492,38.41745V25.58255l12.8349171,6.4174004L26.9695492,38.41745z"></path>
    </g>

  </symbol>
  <symbol version="1.1" id="video-camera" xmlns="http://www.w3.org/2000/svg" xmlns:xlink="http://www.w3.org/1999/xlink" x="0px" y="0px" xml:space="preserve" viewBox="0 0 512 512">
    <g>
      <g>
        <g>
          <rect fill="#30a757" x="39.912" y="238.907" width="120.048" height="15.797"></rect>
          <rect fill="#30a757" x="39.912" y="270.923" width="16.006" height="15.797"></rect>
          <rect fill="#30a757" x="71.93" y="270.923" width="16.005" height="15.797"></rect>
          <rect fill="#30a757" x="103.935" y="270.923" width="16.007" height="15.797"></rect>
          <rect fill="#30a757" x="312.027" y="142.87" width="16.007" height="15.797"></rect>
          <path fill="#30a757" d="M391.952,228.521v-29.63h-29.924c13.419-11.726,21.92-28.946,21.92-48.125c0-35.246-28.676-63.921-63.921-63.921
				c-24.11,0-45.136,13.42-56.022,33.178c-10.887-19.758-31.916-33.178-56.024-33.178c-35.246,0-63.919,28.675-63.919,63.922
				c0,19.178,8.499,36.398,21.919,48.124H0v223.883h391.952v-29.63L512,425.155V196.508L391.952,228.521z M320.027,102.642
				c26.535,0,48.124,21.589,48.124,48.125c0,26.535-21.589,48.124-48.124,48.124c-26.536,0-48.124-21.589-48.124-48.125
				C271.903,124.23,293.49,102.642,320.027,102.642z M278.026,198.89h-28.044c5.626-4.916,10.391-10.792,14.022-17.381
				C267.635,188.099,272.398,193.974,278.026,198.89z M159.857,150.766c0-26.535,21.587-48.124,48.122-48.124
				c26.537,0,48.126,21.589,48.126,48.125c0,26.535-21.589,48.124-48.126,48.124C181.445,198.89,159.857,177.302,159.857,150.766z
				 M376.154,406.976H15.797V214.688h360.357V406.976z M496.203,404.593l-72.24-19.264v-26.478h-15.797v22.267l-16.214-4.324
				V244.871l16.214-4.324v22.267h15.797v-26.478l72.24-19.264V404.593z"></path>
          <rect fill="#30a757" x="199.982" y="142.87" width="16.006" height="15.797"></rect>
          <rect fill="#30a757" x="32.014" y="166.777" width="15.797" height="24.01"></rect>
        </g>
      </g>
    </g>
  </symbol>
  <symbol version="1.1" id="video-player" xmlns="http://www.w3.org/2000/svg" xmlns:xlink="http://www.w3.org/1999/xlink" x="0px" y="0px" xml:space="preserve" viewBox="0 0 512 512">
    <g>
      <g>
        <g>
          <path fill="#30a757" d="M452.267,443.733H186.163c-3.541-9.907-12.919-17.067-24.03-17.067c-11.11,0-20.489,7.159-24.03,17.067H76.8
				c-4.71,0-8.533,3.823-8.533,8.533c0,4.71,3.823,8.533,8.533,8.533h61.312c3.533,9.916,12.911,17.067,24.021,17.067
				c11.11,0,20.489-7.151,24.03-17.067h266.103c4.71,0,8.533-3.823,8.533-8.533C460.8,447.556,456.977,443.733,452.267,443.733z
				 M162.133,460.8c-4.702,0-8.533-3.831-8.533-8.533c0-4.702,3.831-8.533,8.533-8.533c4.702,0,8.533,3.831,8.533,8.533
				C170.667,456.969,166.835,460.8,162.133,460.8z"></path>
          <path fill="#30a757" d="M469.333,0H42.667C19.14,0,0,19.14,0,42.667v426.667C0,492.86,19.14,512,42.667,512h426.667
				C492.86,512,512,492.86,512,469.333V42.667C512,19.14,492.86,0,469.333,0z M494.933,469.333c0,14.123-11.486,25.6-25.6,25.6
				H42.667c-14.114,0-25.6-11.477-25.6-25.6V42.667c0-14.114,11.486-25.6,25.6-25.6h426.667c14.114,0,25.6,11.486,25.6,25.6V469.333
				z"></path>
          <path fill="#30a757" d="M217.634,154.761c-2.645-1.536-5.897-1.545-8.55-0.026c-2.654,1.519-4.284,4.344-4.284,7.398V281.6
				c0,3.055,1.63,5.879,4.284,7.398c1.314,0.759,2.782,1.135,4.25,1.135c1.485,0,2.97-0.384,4.301-1.161l102.4-59.733
				c2.62-1.527,4.232-4.335,4.232-7.373c0-3.029-1.613-5.837-4.232-7.373L217.634,154.761z M221.867,266.743V176.99l76.928,44.877
				L221.867,266.743z"></path>
          <path fill="#30a757" d="M452.267,34.133H59.733c-14.114,0-25.6,11.486-25.6,25.6v341.333c0,4.71,3.823,8.533,8.533,8.533h426.667
				c4.71,0,8.533-3.823,8.533-8.533c0-4.71-3.823-8.533-8.533-8.533H51.2v-332.8c0-4.702,3.831-8.533,8.533-8.533h392.533
				c4.702,0,8.533,3.831,8.533,8.533v307.2c0,4.71,3.823,8.533,8.533,8.533s8.533-3.823,8.533-8.533v-307.2
				C477.867,45.619,466.381,34.133,452.267,34.133z"></path>
        </g>
      </g>
    </g>

  </symbol>
</svg>