<?xml version="1.0" encoding="iso-8859-1"?>
<!-- Generator: Adobe Illustrator 19.0.0, SVG Export Plug-In . SVG Version: 6.00 Build 0)  -->
<svg version="1.1" id="Layer_1" xmlns="http://www.w3.org/2000/svg" xmlns:xlink="http://www.w3.org/1999/xlink" x="0px" y="0px"
	 viewBox="0 0 512 512" style="enable-background:new 0 0 512 512;" xml:space="preserve">
<g>
	<g>
		<g>
			<rect x="39.912" y="238.907" width="120.048" height="15.797"/>
			<rect x="39.912" y="270.923" width="16.006" height="15.797"/>
			<rect x="71.93" y="270.923" width="16.005" height="15.797"/>
			<rect x="103.935" y="270.923" width="16.007" height="15.797"/>
			<rect x="312.027" y="142.87" width="16.007" height="15.797"/>
			<path d="M391.952,228.521v-29.63h-29.924c13.419-11.726,21.92-28.946,21.92-48.125c0-35.246-28.676-63.921-63.921-63.921
				c-24.11,0-45.136,13.42-56.022,33.178c-10.887-19.758-31.916-33.178-56.024-33.178c-35.246,0-63.919,28.675-63.919,63.922
				c0,19.178,8.499,36.398,21.919,48.124H0v223.883h391.952v-29.63L512,425.155V196.508L391.952,228.521z M320.027,102.642
				c26.535,0,48.124,21.589,48.124,48.125c0,26.535-21.589,48.124-48.124,48.124c-26.536,0-48.124-21.589-48.124-48.125
				C271.903,124.23,293.49,102.642,320.027,102.642z M278.026,198.89h-28.044c5.626-4.916,10.391-10.792,14.022-17.381
				C267.635,188.099,272.398,193.974,278.026,198.89z M159.857,150.766c0-26.535,21.587-48.124,48.122-48.124
				c26.537,0,48.126,21.589,48.126,48.125c0,26.535-21.589,48.124-48.126,48.124C181.445,198.89,159.857,177.302,159.857,150.766z
				 M376.154,406.976H15.797V214.688h360.357V406.976z M496.203,404.593l-72.24-19.264v-26.478h-15.797v22.267l-16.214-4.324
				V244.871l16.214-4.324v22.267h15.797v-26.478l72.24-19.264V404.593z"/>
			<rect x="199.982" y="142.87" width="16.006" height="15.797"/>
			<rect x="32.014" y="166.777" width="15.797" height="24.01"/>
		</g>
	</g>
</g>
<g>
</g>
<g>
</g>
<g>
</g>
<g>
</g>
<g>
</g>
<g>
</g>
<g>
</g>
<g>
</g>
<g>
</g>
<g>
</g>
<g>
</g>
<g>
</g>
<g>
</g>
<g>
</g>
<g>
</g>
</svg>
